<?xml version="1.0" standalone="no"?>
<!DOCTYPE svg PUBLIC "-//W3C//DTD SVG 20010904//EN"
 "http://www.w3.org/TR/2001/REC-SVG-20010904/DTD/svg10.dtd">
<svg version="1.0" xmlns="http://www.w3.org/2000/svg"
 width="1300.000000pt" height="1300.000000pt" viewBox="0 0 1300.000000 1300.000000"
 preserveAspectRatio="xMidYMid meet">
<metadata>
Created by potrace 1.16, written by Peter Selinger 2001-2019
</metadata>
<g transform="translate(0.000000,1300.000000) scale(0.100000,-0.100000)"
fill="#000000" stroke="none">
<path d="M10441 11215 c-1 -276 -32 -605 -76 -800 -8 -33 -16 -72 -19 -86 -2
-14 -16 -74 -31 -133 l-28 -107 39 -42 39 -42 -40 37 -40 38 -34 -108 c-66
-209 -194 -516 -269 -645 -37 -64 -43 -65 -112 -22 -19 12 -61 36 -92 53 l-58
31 -64 -92 c-36 -51 -84 -112 -107 -137 -23 -25 -88 -94 -143 -154 -56 -60
-117 -126 -136 -145 -38 -39 -83 -93 -62 -75 10 8 23 1 55 -28 150 -138 356
-166 558 -76 74 34 84 43 28 28 -125 -34 -260 -29 -354 14 -53 24 -130 94
-155 140 -13 25 -13 29 2 40 62 45 294 269 355 344 20 23 41 42 47 42 6 0 48
-25 93 -55 46 -30 87 -55 92 -55 4 0 14 -7 21 -15 7 -8 16 -15 21 -15 21 0
170 273 267 490 57 129 151 438 191 634 31 148 30 149 -31 91 l-53 -50 57 60
57 60 13 105 c20 158 17 593 -6 750 -9 68 -19 126 -21 128 -2 2 -3 -89 -4
-203z"/>
<path d="M9132 10261 c-240 -443 -541 -802 -937 -1119 -6 -5 -58 -40 -117 -80
-355 -238 -742 -364 -1169 -379 -262 -9 -541 14 -1059 87 -255 35 -577 76
-675 85 -70 6 -70 6 -104 -29 -41 -42 -37 -66 12 -66 24 0 42 9 66 32 24 24
35 28 44 19 9 -9 9 -16 -1 -32 -8 -12 -12 -22 -10 -23 2 -2 91 -13 198 -25
107 -12 287 -35 400 -51 476 -68 615 -81 895 -87 295 -6 395 1 599 42 175 36
333 92 521 185 472 233 858 603 1188 1140 65 106 233 430 223 430 -2 0 -35
-58 -74 -129z"/>
<path d="M6769 9774 c-43 -52 -269 -178 -428 -239 -133 -50 -389 -120 -556
-151 -174 -32 -418 -68 -680 -99 -289 -35 -540 -128 -790 -294 -113 -74 -266
-204 -364 -307 -92 -97 -201 -234 -201 -253 0 -5 14 -19 31 -31 l30 -22 67 66
c168 165 320 242 585 297 77 16 153 22 310 26 114 3 207 9 207 14 0 5 14 24
30 42 17 19 30 38 30 42 0 5 -102 5 -227 2 -263 -6 -400 -26 -563 -81 -58 -20
-107 -36 -109 -36 -12 0 180 151 259 204 238 158 447 232 790 281 193 27 447
69 515 86 22 5 51 12 65 15 300 60 698 208 860 319 71 49 175 135 162 135 -5
0 -16 -7 -23 -16z"/>
<path d="M8990 8548 c-11 -18 -25 -48 -31 -67 -17 -51 -5 -226 25 -361 66
-295 89 -421 91 -497 1 -52 7 -89 16 -100 13 -17 13 -17 -7 0 -20 16 -22 16
-35 1 -24 -29 -90 -52 -199 -68 -199 -31 -234 -42 -289 -98 -56 -57 -63 -85
-64 -273 -2 -154 -4 -174 -25 -216 -33 -68 -72 -85 -212 -93 -63 -4 -116 -9
-118 -11 -2 -2 4 -27 13 -56 22 -66 23 -175 1 -217 -21 -42 -83 -90 -131 -104
-22 -6 -89 -11 -150 -12 l-109 -1 -38 -50 c-46 -61 -91 -166 -129 -300 -49
-175 -104 -305 -160 -376 l-28 -36 34 -33 c18 -18 38 -29 44 -26 23 14 94 130
122 199 17 40 53 146 80 237 28 91 65 192 83 225 l33 60 114 6 c126 6 179 23
240 77 84 73 115 162 99 280 l-6 52 51 0 c110 0 204 58 246 152 23 50 24 64
24 238 0 255 -1 253 243 305 178 37 214 50 259 92 64 60 66 154 8 375 -117
443 -119 452 -119 538 -1 74 3 93 26 138 30 58 29 70 -2 20z"/>
<path d="M4899 8413 c-15 -4 -15 -7 0 -39 l16 -35 70 7 c212 22 474 -4 685
-67 101 -30 286 -104 339 -136 l26 -15 -25 21 c-42 36 -279 149 -390 186 -153
52 -345 85 -489 85 -93 0 -121 -3 -131 -15 -7 -8 -19 -15 -27 -15 -8 0 -21 7
-29 15 -16 15 -18 16 -45 8z"/>
<path d="M4785 8377 c-10 -5 -28 -22 -41 -36 -19 -22 -24 -24 -39 -11 -16 13
-16 15 5 32 28 23 17 23 -64 -2 -60 -19 -95 -40 -65 -40 7 0 24 -11 38 -24
l26 -25 84 25 c46 13 91 24 102 24 24 0 32 15 20 39 -13 23 -42 32 -66 18z"/>
<path d="M4394 8260 c-144 -71 -291 -167 -394 -256 -14 -12 -65 -57 -115 -100
-136 -118 -185 -163 -375 -354 -182 -181 -225 -226 -400 -420 -58 -63 -107
-117 -110 -120 -3 -3 -25 -27 -49 -55 -24 -27 -102 -110 -174 -183 -122 -123
-130 -133 -115 -149 16 -15 24 -10 115 70 54 47 243 231 420 409 373 375 523
522 648 633 49 44 119 107 155 140 78 73 204 169 282 216 32 19 58 41 58 50 0
24 26 42 49 34 28 -9 201 72 194 91 -9 23 -40 26 -72 6 -17 -10 -29 -21 -26
-24 3 -3 -4 -13 -15 -23 -16 -15 -22 -16 -35 -5 -14 12 -12 17 17 47 17 18 30
33 27 33 -3 0 -41 -18 -85 -40z"/>
<path d="M8897 6946 c157 -195 281 -386 377 -581 82 -165 116 -253 171 -440
l44 -150 1 95 c1 323 -145 668 -400 944 -57 61 -237 216 -252 216 -4 0 22 -38
59 -84z"/>
<path d="M5400 6284 c-169 -33 -312 -108 -405 -213 -77 -87 -155 -231 -198
-366 -31 -96 -67 -270 -66 -317 0 -21 7 -1 18 52 39 179 95 329 178 468 14 24
62 81 107 126 62 64 98 91 156 118 149 72 291 85 472 43 177 -40 295 -104 552
-299 67 -50 132 -99 146 -108 14 -10 50 -36 80 -58 194 -142 355 -231 500
-275 84 -26 270 -31 349 -10 68 17 119 41 161 74 l25 20 -33 34 -34 35 -54
-33 c-40 -24 -75 -36 -135 -44 -95 -14 -165 -8 -274 26 -158 50 -273 118 -603
355 -217 157 -264 186 -246 156 4 -7 3 -10 -1 -5 -5 4 -20 -3 -34 -15 -21 -19
-20 -17 3 10 29 31 29 32 10 47 -52 40 -248 127 -339 150 -97 25 -275 41 -335
29z"/>
<path d="M9211 5664 c-29 -15 -76 -49 -104 -76 -29 -28 -41 -43 -27 -34 84 52
157 80 218 82 45 2 70 8 85 21 l22 18 -19 -22 c-18 -22 -18 -22 16 -55 47 -45
81 -106 114 -208 26 -78 28 -97 28 -245 0 -149 -1 -166 -28 -245 -15 -47 -50
-126 -77 -177 -27 -51 -74 -154 -105 -230 -59 -147 -93 -207 -146 -262 -81
-83 -136 -92 -192 -31 -41 46 -44 44 -16 -10 22 -42 63 -70 105 -70 57 0 176
85 237 170 14 20 63 112 109 205 46 94 94 187 107 208 161 262 139 681 -49
900 -78 91 -175 112 -278 61z"/>
<path d="M5455 5395 c-18 -107 -12 -604 8 -738 33 -222 73 -350 167 -542 81
-165 97 -225 109 -415 l8 -142 49 -49 c26 -27 51 -49 55 -49 3 0 3 19 -2 43
-5 23 -13 105 -19 182 -17 216 -49 325 -134 465 -44 72 -95 199 -130 325 -62
229 -86 413 -95 740 -6 204 -8 231 -16 180z"/>
<path d="M9140 5166 c0 -2 22 -18 49 -36 61 -38 128 -110 137 -145 9 -35 -17
-92 -87 -190 -66 -93 -107 -171 -125 -237 -7 -27 -11 -48 -9 -48 2 0 24 34 49
75 26 41 79 111 118 156 114 133 141 216 95 291 -28 47 -61 72 -141 108 -61
28 -86 35 -86 26z"/>
<path d="M7460 4639 c-50 -43 -183 -105 -265 -123 -38 -8 -114 -16 -168 -18
l-99 -3 44 -19 c28 -12 75 -21 135 -24 162 -8 282 47 371 171 39 54 33 60 -18
16z"/>
<path d="M6210 4194 c-19 -15 -73 -45 -120 -67 -80 -39 -90 -42 -170 -42 -66
1 -96 6 -135 23 l-50 23 30 -31 c98 -104 258 -104 385 -1 68 56 72 60 94 94
23 33 12 34 -34 1z"/>
<path d="M4774 3905 c14 -558 232 -1145 565 -1522 139 -159 287 -285 418 -357
7 -4 -43 49 -111 117 -352 356 -555 719 -739 1322 -31 101 -88 339 -112 468
l-25 132 4 -160z"/>
<path d="M8860 3917 c-101 -163 -324 -393 -605 -625 -44 -37 -219 -172 -379
-294 -159 -120 -206 -159 -266 -216 -123 -119 -270 -191 -435 -213 -119 -15
-198 -2 -404 71 l-163 58 80 -80 c72 -72 88 -83 154 -104 118 -40 214 -50 332
-35 111 14 249 62 324 113 24 17 46 27 50 23 3 -3 1 -9 -5 -13 -19 -13 -94
-135 -138 -227 -46 -98 -75 -198 -74 -261 0 -36 2 -33 23 36 52 170 166 349
355 555 138 152 306 316 416 408 293 243 489 438 631 626 69 90 160 238 152
246 -2 2 -23 -29 -48 -68z"/>
<path d="M9510 3956 c0 -3 39 -54 87 -113 397 -492 436 -549 586 -846 l65
-129 31 29 30 28 -43 102 c-94 220 -194 382 -338 549 -90 104 -336 334 -357
334 -6 0 -11 3 -11 8 -1 8 -50 46 -50 38z"/>
<path d="M7252 3542 c-55 -55 -114 -83 -237 -117 -112 -30 -124 -36 -176 -76
-32 -25 -46 -29 -102 -29 -66 0 -170 -27 -217 -56 -24 -15 -24 -15 15 -8 22 4
94 9 160 9 150 2 136 0 178 34 22 17 83 43 152 65 108 35 120 42 181 99 55 51
104 115 92 120 -2 1 -22 -17 -46 -41z"/>
<path d="M5750 3538 c0 -19 43 -208 56 -247 69 -204 211 -393 387 -512 58 -40
192 -109 212 -109 12 0 81 68 74 73 -2 2 -38 18 -80 36 -192 82 -356 233 -444
408 -39 78 -85 199 -85 223 0 9 -27 42 -60 75 -33 33 -60 57 -60 53z"/>
<path d="M7198 3343 c-8 -20 -178 -138 -248 -173 -43 -21 -120 -86 -120 -101
0 -10 69 7 121 29 59 26 154 103 209 170 54 65 64 82 51 82 -5 0 -11 -3 -13
-7z"/>
<path d="M10278 2884 l-26 -26 43 -96 c27 -59 57 -109 80 -131 l37 -36 -6 30
c-10 49 -90 285 -96 285 -3 0 -17 -12 -32 -26z"/>
<path d="M6456 2702 l-37 -39 143 -52 c79 -29 152 -55 163 -58 29 -9 -124 147
-160 162 -65 27 -69 27 -109 -13z"/>
</g>
</svg>
