
<svg version="1.0" xmlns="http://www.w3.org/2000/svg"
 width="305.000000pt" height="266.000000pt" viewBox="0 0 305.000000 266.000000"
 preserveAspectRatio="xMidYMid meet">

<g transform="translate(0.000000,266.000000) scale(0.100000,-0.100000)"
fill="#000000" stroke="none">
<path d="M975 2530 c-10 -19 -18 -68 -21 -128 -6 -96 9 -406 26 -532 24 -185
30 -223 49 -297 21 -80 21 -86 6 -250 -14 -149 -30 -271 -38 -279 -8 -8 -417
-14 -442 -6 l-30 8 -1 140 c-1 81 2 144 8 152 8 9 0 12 -38 11 -27 -1 -41 -3
-31 -6 15 -4 17 -20 17 -153 0 -161 -2 -166 -57 -151 l-28 7 -1 140 c0 76 4
145 9 152 7 9 1 12 -24 12 l-34 0 0 -152 0 -153 -25 0 -25 0 -3 144 c-2 109 1
146 10 153 8 5 1 8 -19 8 -28 0 -33 -4 -38 -32 -3 -18 -5 -87 -3 -153 l3 -120
-67 -5 c-72 -5 -89 -13 -69 -33 9 -9 115 -12 438 -13 339 -1 428 -4 431 -14 3
-7 -1 -36 -7 -64 -6 -28 -20 -97 -32 -154 -12 -61 -34 -133 -55 -175 -26 -56
-34 -84 -34 -128 0 -65 7 -89 25 -89 8 0 14 25 18 75 8 104 28 137 93 150 45
9 59 20 166 129 l117 118 48 -7 c115 -17 241 -65 227 -86 -9 -14 -72 -5 -265
37 -32 7 -48 -12 -27 -32 14 -14 56 -26 206 -59 65 -15 82 -22 82 -36 0 -16
-7 -17 -52 -13 -29 3 -73 9 -98 14 -79 16 -157 22 -163 13 -12 -19 13 -35 79
-49 38 -7 81 -14 95 -14 14 0 34 -7 45 -15 32 -24 0 -37 -82 -31 -63 4 -74 2
-100 -19 l-29 -24 37 -15 c21 -9 42 -16 48 -16 13 0 13 -17 0 -25 -18 -11 -68
6 -106 36 -42 33 -52 35 -61 14 -8 -21 24 -54 72 -76 22 -10 60 -41 84 -69 63
-75 214 -145 175 -82 -6 9 -38 31 -72 47 -86 42 -96 78 -24 91 56 10 82 30 82
64 0 23 7 33 30 45 16 8 36 15 45 15 9 0 27 11 41 25 29 29 32 30 109 10 56
-14 67 -22 150 -109 108 -113 125 -120 279 -110 92 6 114 4 178 -16 40 -12 82
-26 93 -31 11 -5 47 -18 80 -31 114 -42 253 -21 345 52 23 18 43 30 46 27 11
-11 -26 -113 -58 -162 l-33 -50 -90 -11 c-50 -7 -141 -22 -203 -34 -103 -20
-123 -21 -218 -10 -58 6 -117 16 -132 21 -48 18 -125 30 -206 30 -54 1 -91 7
-120 20 -34 16 -64 18 -186 18 -161 -1 -205 -7 -205 -28 0 -12 29 -14 171 -12
157 2 175 1 213 -18 30 -16 59 -21 113 -21 40 0 102 -7 138 -16 178 -42 324
-55 400 -34 19 5 100 18 180 30 80 11 155 23 168 26 44 9 118 157 127 254 3
27 20 79 40 118 33 66 35 77 35 164 -1 79 -5 104 -30 168 -32 80 -36 126 -20
211 16 82 13 385 -6 513 -18 126 -40 182 -90 226 -39 34 -144 89 -215 113 -26
9 -63 27 -83 40 -19 14 -71 37 -113 52 -103 37 -186 73 -253 110 -55 31 -63
41 -107 140 -10 22 -26 42 -36 43 -17 3 -18 -1 -12 -30 4 -18 14 -55 23 -82
13 -41 13 -60 3 -129 -7 -44 -21 -102 -32 -129 -10 -27 -19 -57 -19 -66 0 -24
-58 -79 -92 -87 -36 -9 -37 -35 -1 -35 29 0 93 44 93 65 0 7 15 36 34 63 33
49 59 109 70 163 8 39 26 40 92 9 32 -16 100 -42 149 -60 143 -50 151 -59 115
-128 -37 -70 -48 -178 -44 -412 2 -118 3 -239 4 -269 0 -29 -5 -60 -11 -67
-17 -20 -99 -64 -121 -64 -17 0 -19 7 -17 70 3 91 -5 100 -90 100 -92 -1 -138
-13 -175 -49 -17 -17 -46 -34 -64 -37 -29 -6 -32 -4 -32 17 0 13 13 60 29 104
29 82 30 105 6 105 -19 0 -30 -23 -69 -143 l-34 -102 -58 -21 c-114 -41 -106
-43 -165 38 -29 40 -70 110 -92 156 -37 80 -40 92 -53 246 -7 88 -18 188 -24
221 -6 33 -14 75 -17 93 -6 36 -27 52 -45 34 -10 -10 -9 -24 23 -192 6 -30 14
-136 17 -235 7 -173 8 -180 28 -183 13 -2 29 -19 43 -48 13 -24 33 -57 45 -72
12 -15 37 -49 55 -75 l33 -48 -51 -49 c-28 -27 -51 -54 -51 -59 0 -16 -39 -13
-94 5 -26 9 -59 14 -74 11 -15 -3 -54 -10 -87 -16 -50 -9 -67 -18 -105 -55
-65 -64 -105 -106 -144 -148 -56 -63 -77 -49 -56 37 6 22 19 85 30 140 30 147
35 158 55 113 16 -35 32 -32 40 9 4 21 10 108 14 193 7 176 13 168 36 -45 18
-179 25 -209 50 -214 17 -3 18 3 12 80 -4 46 -10 112 -13 147 -6 52 -4 62 9
62 9 0 18 4 21 9 3 5 -21 61 -55 125 -83 160 -111 248 -129 406 -6 52 -16 112
-21 132 -5 21 -11 183 -13 360 -3 207 -8 324 -15 326 -5 2 -17 -11 -26 -28z
m1729 -733 c142 -70 155 -88 187 -250 17 -83 21 -139 20 -302 -1 -198 -7 -265
-26 -272 -6 -1 -43 23 -83 55 -79 64 -140 86 -214 80 -38 -3 -43 0 -46 19 -2
13 6 61 18 109 12 47 19 92 16 100 -8 22 -42 17 -54 -8 -8 -18 -11 7 -11 109
-1 185 19 322 55 380 18 28 53 23 138 -20z m15 -774 c95 -54 149 -105 180
-168 76 -157 72 -276 -15 -392 -37 -49 -191 -145 -242 -151 -60 -7 -142 12
-262 61 l-105 42 -37 70 c-40 75 -48 115 -23 115 8 0 15 9 15 20 0 11 12 26
28 34 15 8 47 35 70 60 34 37 42 53 42 84 0 76 -69 93 -85 22 -5 -25 -12 -30
-35 -30 -19 0 -35 -9 -48 -25 -25 -32 -45 -32 -62 -1 -35 66 54 186 138 186
20 0 56 12 86 29 28 16 69 34 91 41 22 7 45 16 50 20 36 28 152 19 214 -17z
m-763 17 c18 0 19 -50 2 -51 -54 -2 -81 -9 -96 -22 -44 -40 -154 -61 -192 -37
-23 14 1 32 95 68 97 38 146 51 163 46 8 -2 20 -4 28 -4z m-4 -122 c12 -18 46
-61 75 -95 68 -81 80 -105 102 -210 10 -49 27 -110 37 -136 22 -57 18 -61 -62
-71 -89 -10 -135 7 -203 78 -33 33 -69 73 -80 88 -13 16 -45 34 -83 47 -33 11
-69 28 -80 37 -25 24 -24 105 2 160 22 45 47 59 115 67 22 2 63 18 90 35 28
17 53 31 57 31 4 1 17 -14 30 -31z"/>
<path d="M1214 2378 c-4 -6 -28 -54 -54 -107 -45 -93 -47 -100 -59 -238 -13
-138 -9 -270 9 -363 5 -25 14 -80 21 -123 9 -56 17 -81 30 -87 27 -15 31 1 19
72 -7 35 -14 92 -16 128 -2 36 -9 81 -14 100 -14 50 -12 150 5 276 17 126 35
186 77 266 17 32 28 64 25 73 -7 18 -33 20 -43 3z"/>
<path d="M1266 2341 c-3 -4 9 -26 27 -47 18 -21 44 -56 57 -77 31 -46 114
-105 166 -118 60 -13 144 7 128 32 -3 5 -20 9 -37 9 -30 1 -31 1 -13 15 11 8
32 15 47 15 34 0 74 32 66 53 -5 14 -14 13 -77 -9 -91 -31 -127 -30 -170 1
-19 14 -39 25 -46 25 -6 0 -31 25 -55 55 -42 51 -79 70 -93 46z"/>
<path d="M482 2199 c2 -6 28 -21 58 -32 76 -28 168 -121 201 -202 21 -54 24
-74 23 -199 -1 -114 1 -136 11 -123 7 10 18 59 25 110 10 74 10 106 0 153 -31
149 -124 255 -254 289 -68 18 -69 18 -64 4z"/>
<path d="M1322 2092 c15 -54 106 -188 160 -233 53 -44 147 -89 187 -89 10 0
44 -9 76 -20 34 -12 63 -16 68 -11 16 16 -42 48 -130 70 -48 13 -101 31 -118
42 -46 29 -126 122 -165 192 -26 44 -43 63 -59 65 -20 3 -23 0 -19 -16z"/>
<path d="M84 2060 c-61 -25 -81 -246 -34 -389 21 -65 32 -83 90 -140 36 -36
82 -79 101 -95 31 -26 36 -27 67 -16 25 9 37 9 45 1 14 -14 50 -14 64 0 8 8
25 8 62 -2 43 -11 53 -10 68 2 10 8 40 25 66 38 45 23 87 62 87 82 0 4 -34 -8
-76 -28 -59 -28 -88 -36 -128 -35 -28 1 -76 -4 -106 -9 -47 -9 -63 -8 -110 10
-118 44 -191 155 -211 321 -11 94 -11 96 18 183 17 48 28 87 24 86 -3 0 -16
-4 -27 -9z"/>
<path d="M1234 2035 c-8 -20 2 -195 15 -262 5 -26 15 -100 21 -163 12 -125 29
-230 54 -325 19 -73 19 -82 4 -67 -15 15 -45 16 -53 2 -4 -6 9 -34 28 -63 19
-29 46 -83 60 -122 14 -40 30 -70 38 -70 23 0 22 54 -1 116 -17 49 -19 61 -8
79 11 17 8 39 -20 148 -19 76 -35 165 -38 222 -3 52 -12 127 -19 165 -15 76
-34 234 -38 305 -1 34 -6 46 -20 48 -9 2 -20 -4 -23 -13z"/>
</g>
</svg>
