<?xml version="1.0" standalone="no"?>
<!DOCTYPE svg PUBLIC "-//W3C//DTD SVG 20010904//EN"
 "http://www.w3.org/TR/2001/REC-SVG-20010904/DTD/svg10.dtd">
<svg version="1.0" xmlns="http://www.w3.org/2000/svg"
 width="455.000000pt" height="423.000000pt" viewBox="0 0 455.000000 423.000000"
 preserveAspectRatio="xMidYMid meet">
<metadata>
Created by potrace 1.16, written by Peter Selinger 2001-2019
</metadata>
<g transform="translate(0.000000,423.000000) scale(0.100000,-0.100000)"
fill="#000000" stroke="none">
<path d="M1676 4009 c-115 -77 -188 -197 -189 -313 -1 -61 1 -71 23 -88 62
-48 63 -49 57 -84 -3 -18 -19 -62 -36 -98 -17 -35 -31 -77 -31 -92 0 -16 -7
-42 -15 -58 -18 -34 -19 -56 -4 -56 8 0 8 -4 0 -14 -6 -7 -15 -46 -21 -87 -5
-41 -12 -94 -16 -119 -6 -40 -5 -43 8 -30 18 18 38 106 38 165 0 24 4 46 9 49
10 7 51 87 51 100 0 5 -7 5 -16 2 -26 -10 -11 73 26 137 16 30 35 80 40 113
17 96 18 97 139 148 111 46 171 58 171 33 0 -24 35 -47 71 -47 31 -1 33 -2 16
-15 -11 -7 -49 -17 -85 -20 -42 -5 -75 -14 -87 -25 -11 -10 -31 -21 -45 -25
-36 -10 -72 -34 -65 -44 2 -5 34 2 70 15 36 13 77 24 90 24 14 0 25 6 25 13 0
8 3 7 10 -3 8 -12 17 -12 74 2 63 14 66 14 66 -3 0 -25 11 -49 22 -49 6 0 8
14 6 30 -4 26 -1 30 19 30 18 0 23 -6 23 -24 0 -27 11 -38 44 -41 11 -1 30 -3
41 -5 26 -2 -71 -30 -108 -30 -15 0 -45 -9 -67 -20 -22 -11 -52 -20 -67 -20
-55 0 -98 -19 -117 -51 -10 -17 -31 -46 -47 -64 -18 -20 -27 -39 -23 -49 4
-11 0 -16 -14 -16 -27 0 -52 -10 -52 -21 0 -27 104 3 184 52 l50 32 46 -24
c73 -39 126 -100 133 -153 4 -25 9 -57 13 -71 7 -29 -12 -41 -51 -31 -28 7
-33 31 -9 40 19 7 9 26 -15 26 -10 0 -30 9 -44 20 -34 27 -47 7 -16 -26 l22
-24 -39 -1 c-118 -2 -162 -7 -191 -22 -18 -10 -33 -22 -33 -27 0 -13 -2 -14
73 15 58 22 72 23 127 14 83 -13 119 -51 120 -124 0 -47 -12 -75 -32 -75 -13
0 -9 28 5 34 8 3 6 9 -7 20 -21 17 -66 22 -66 7 0 -4 -23 -11 -50 -14 -62 -8
-75 -14 -60 -32 9 -11 6 -21 -11 -44 -22 -30 -20 -56 3 -33 21 21 28 13 28
-30 0 -73 -33 -123 -110 -168 -76 -44 -82 -53 -155 -243 -20 -51 -48 -117 -63
-147 -14 -30 -30 -64 -35 -75 -15 -37 39 23 64 70 l23 43 19 -31 19 -31 -23
-16 c-13 -8 -42 -29 -64 -46 -23 -17 -54 -34 -71 -38 -16 -4 -37 -15 -46 -23
-14 -12 -39 -15 -118 -14 -57 1 -117 -3 -138 -10 -46 -15 -176 -63 -219 -80
-18 -7 -35 -10 -38 -7 -4 3 -9 30 -12 59 -10 101 59 235 204 392 41 45 80 92
86 105 18 39 -3 39 -35 -1 l-30 -37 -18 22 c-10 13 -54 41 -98 62 -68 33 -83
37 -96 26 -24 -19 -20 -31 36 -88 59 -62 91 -59 36 3 -18 21 -28 36 -23 34
120 -55 145 -71 136 -88 -6 -10 -18 -24 -27 -32 -35 -28 -138 -176 -168 -239
-26 -55 -31 -78 -32 -148 -1 -46 -3 -84 -5 -85 -2 -2 -30 -22 -62 -46 -98 -74
-148 -139 -223 -284 l-69 -136 -22 27 c-13 15 -37 49 -54 75 l-32 48 13 74
c12 68 14 73 31 64 18 -9 19 -5 19 48 1 170 16 249 62 315 19 28 23 48 10 48
-14 0 -38 -31 -66 -84 -21 -40 -26 -63 -26 -122 0 -58 -6 -88 -31 -149 -18
-47 -33 -104 -36 -146 -5 -63 -4 -72 20 -106 34 -49 127 -141 127 -126 0 7 14
36 31 65 18 29 54 96 80 149 40 78 63 110 120 163 39 37 85 73 102 81 38 17
147 59 235 91 l63 23 -6 -29 c-7 -30 8 -70 26 -70 5 0 7 11 3 25 -6 23 -3 25
25 25 17 0 31 5 31 10 0 6 27 10 61 10 57 0 169 -29 254 -66 17 -7 66 -27 110
-44 129 -50 183 -78 200 -104 14 -22 20 -24 43 -15 14 6 37 7 50 4 20 -5 23
-11 22 -48 -3 -61 -2 -64 15 -41 10 15 30 23 62 28 26 3 75 10 108 15 57 9 85
3 85 -19 0 -4 -42 -13 -92 -19 -118 -16 -177 -30 -207 -48 -22 -14 -23 -20
-18 -82 6 -72 34 -192 52 -228 15 -28 105 -79 105 -60 0 7 -5 18 -12 25 -9 9
-2 12 32 12 25 0 70 7 100 15 59 16 69 15 45 -5 -26 -21 -17 -32 23 -26 82 13
252 29 256 25 3 -2 8 -59 12 -127 4 -70 11 -122 17 -122 6 0 8 44 5 124 -6
123 -3 136 28 136 2 0 4 -58 4 -130 0 -113 2 -130 16 -130 14 0 16 16 13 127
l-4 128 80 6 c44 4 105 10 136 14 l56 7 7 -47 c3 -26 6 -90 6 -141 0 -56 4
-94 10 -94 6 0 10 55 10 145 0 122 2 145 15 145 12 0 15 -16 15 -87 0 -61 -3
-83 -10 -73 -7 10 -10 -7 -10 -57 0 -72 1 -73 25 -73 l26 0 -2 143 c-1 160
-11 139 81 166 32 9 30 10 -25 8 l-60 -2 -8 188 c-5 104 -6 191 -3 194 9 9 41
-35 82 -112 52 -99 121 -202 140 -209 8 -3 13 -2 11 2 -3 4 -23 37 -45 74 -23
37 -55 95 -72 128 -17 34 -50 91 -74 128 -32 50 -46 87 -58 147 -9 44 -19 87
-23 96 -5 13 13 27 79 63 47 25 92 46 100 46 17 0 62 51 71 81 12 35 -6 36
-35 0 -29 -33 -77 -71 -93 -71 -5 0 -1 7 8 16 27 28 1 40 -31 15 l-27 -21 -38
33 c-86 73 -119 92 -119 68 0 -12 115 -100 152 -115 l28 -12 -38 -13 c-20 -8
-44 -20 -54 -28 -14 -13 -19 -13 -42 2 -33 22 -54 10 -30 -16 13 -14 14 -23 7
-30 -8 -8 -22 -4 -49 15 -21 14 -50 26 -63 26 -24 0 -108 -22 -166 -44 -16 -6
-34 -10 -38 -8 -5 1 -11 -6 -14 -16 -3 -14 -22 -21 -91 -31 -48 -8 -118 -22
-157 -32 -117 -31 -258 -44 -308 -30 -97 29 -191 108 -249 208 -16 29 -43 61
-59 70 -37 22 -52 60 -47 125 4 64 37 124 101 187 45 43 46 43 119 45 66 1 78
-2 110 -26 24 -18 45 -49 64 -93 l29 -67 65 7 c75 8 220 8 300 0 95 -10 33 11
-73 25 -92 12 -201 9 -254 -6 -18 -5 -23 -2 -23 13 0 10 7 29 17 42 16 24 16
24 -9 18 -17 -5 -30 -2 -38 8 -10 12 -10 15 3 15 9 0 23 7 31 16 9 8 16 13 16
9 0 -4 18 8 39 27 93 79 294 167 384 168 25 0 36 4 32 11 -14 22 -184 -16
-280 -64 -22 -10 -67 -37 -100 -59 l-60 -41 35 38 c50 53 135 117 205 154 52
28 56 31 26 26 -19 -3 -48 -12 -64 -20 -17 -8 -32 -15 -34 -15 -11 0 1 111 15
140 20 41 88 89 144 101 33 8 44 6 71 -13 41 -29 98 -58 114 -58 8 0 16 7 19
15 4 8 10 12 15 9 18 -11 55 24 67 64 7 21 25 56 42 77 16 21 30 42 30 46 0 5
5 9 10 9 6 0 10 -7 10 -15 0 -8 9 -19 20 -25 16 -8 24 -6 40 10 21 21 25 70 5
60 -5 -3 -8 -11 -7 -19 4 -17 -20 -34 -29 -19 -10 15 22 88 44 99 13 8 29 6
58 -5 22 -9 51 -16 64 -16 39 0 30 -19 -19 -41 -39 -17 -45 -24 -50 -57 -8
-56 -3 -87 14 -87 11 0 16 15 18 63 3 58 4 62 27 62 24 0 64 30 66 50 1 6 2
16 3 23 2 18 114 74 183 92 33 8 88 16 124 18 90 4 80 21 -15 25 -105 4 -204
-31 -321 -113 -17 -12 -26 -12 -60 1 -68 24 -110 19 -137 -17 l-24 -30 -71 63
c-38 35 -81 68 -94 74 -13 6 -36 17 -50 24 -29 13 -44 37 -54 85 -8 38 -79
103 -207 193 -53 37 -141 101 -195 143 -95 73 -317 226 -358 246 -50 25 -82
23 -129 -8z m129 -27 c57 -29 241 -156 365 -252 69 -53 159 -120 200 -148 110
-74 167 -133 176 -179 5 -25 19 -49 42 -70 l35 -32 -36 -42 c-20 -22 -41 -55
-47 -73 -9 -27 -4 -24 43 29 l54 60 44 -30 c24 -16 46 -31 48 -32 3 -2 0 -8
-7 -15 -8 -8 -19 -3 -42 21 -30 30 -60 41 -60 22 0 -5 16 -23 36 -40 22 -19
34 -38 30 -46 -8 -22 -30 -18 -56 10 -24 26 -45 32 -55 16 -3 -5 13 -22 35
-38 22 -15 40 -36 40 -45 0 -28 16 -21 38 15 12 17 33 44 49 59 25 24 30 25
48 12 19 -14 19 -15 2 -47 -10 -17 -42 -62 -72 -100 -30 -37 -58 -74 -63 -83
-8 -14 -14 -13 -53 6 -24 11 -59 34 -77 49 -29 25 -32 32 -23 49 14 26 14 52
1 52 -6 0 -16 -11 -22 -25 -11 -25 -11 -25 -30 -5 -16 17 -32 20 -96 20 -57 0
-84 5 -103 18 -83 55 -101 71 -124 114 -31 56 -81 100 -136 118 -38 13 -43 12
-108 -20 -81 -39 -102 -34 -58 13 18 19 40 46 50 60 12 19 27 27 47 27 15 0
57 9 92 20 34 11 74 20 87 20 13 0 53 5 88 12 75 14 89 32 72 92 -12 43 -45
53 -35 10 6 -24 5 -25 -29 -22 -41 4 -50 19 -17 33 12 5 22 13 22 17 0 13 -61
19 -127 12 l-66 -7 21 24 c15 15 22 36 22 61 0 53 -21 62 -134 56 -81 -5 -103
-10 -206 -54 -92 -40 -116 -54 -118 -72 -4 -28 -22 -28 -56 -1 -31 25 -34 62
-9 135 22 67 51 110 114 170 83 79 93 82 164 46z m534 -909 c66 -4 78 -8 103
-34 24 -23 26 -29 12 -29 -31 0 -102 -40 -141 -80 -48 -49 -75 -45 -121 17
-35 47 -35 52 11 116 15 22 24 27 41 21 11 -4 54 -9 95 -11z m-196 -60 c-10
-25 -14 -57 -11 -95 2 -31 1 -55 -2 -53 -3 2 -12 -1 -20 -6 -12 -8 -12 -12 -2
-16 6 -2 12 -10 12 -16 -1 -16 -69 -91 -102 -112 -16 -9 -28 -24 -28 -33 0
-13 -3 -12 -20 3 -24 21 -35 15 -25 -14 6 -20 21 -26 55 -21 18 2 80 60 80 74
0 6 16 29 35 50 19 22 35 48 35 58 0 10 7 18 16 18 17 0 16 18 -1 65 -5 14 2
10 24 -12 18 -20 41 -33 55 -33 24 0 25 -2 24 -72 l-1 -73 -72 -67 c-40 -37
-82 -86 -92 -108 -20 -39 -20 -39 -39 -19 -10 12 -26 18 -37 15 -12 -3 -21 3
-27 17 -4 12 -22 35 -39 51 -23 22 -31 39 -31 64 0 33 1 33 33 27 32 -7 32 -7
13 13 -10 12 -27 24 -36 27 -13 4 -18 15 -17 43 1 20 -2 51 -6 69 -8 29 -6 32
22 38 17 4 33 11 36 16 12 18 35 9 35 -13 0 -36 15 -50 46 -46 24 2 31 10 42
43 15 46 19 93 9 115 -5 10 0 19 15 26 36 18 38 16 21 -23z m-416 -897 c38
-75 117 -147 209 -192 71 -35 87 -39 152 -38 62 1 72 -1 70 -15 -2 -12 -26
-20 -90 -31 -47 -8 -90 -18 -94 -22 -12 -13 -71 -9 -82 5 -11 13 -84 48 -172
83 -25 10 -64 26 -86 35 -23 10 -63 23 -90 29 -43 10 -65 18 -139 51 -11 5
-35 10 -53 11 -19 1 -36 6 -38 10 -7 11 -2 10 91 -6 91 -16 115 -24 115 -38 0
-8 38 -2 50 9 7 7 -22 22 -62 33 -48 13 -48 26 -2 39 20 6 47 19 59 31 12 11
42 33 66 49 52 33 59 30 96 -43z m1079 -82 c15 -4 20 -11 17 -25 -4 -13 7 -31
35 -57 37 -34 41 -44 56 -124 14 -71 16 -121 10 -267 l-7 -179 -31 -6 c-69
-11 -229 -25 -368 -31 -81 -3 -162 -10 -180 -15 l-33 -9 27 24 c38 33 45 101
23 225 -15 87 -20 100 -66 159 -27 35 -49 69 -49 76 0 7 14 15 31 19 27 5 187
53 374 113 28 9 54 20 60 24 5 5 19 9 31 9 13 0 26 5 29 10 4 6 -15 10 -49 10
-44 0 -54 3 -50 14 11 27 88 44 140 30z m-266 -83 c0 -16 -20 -26 -112 -54
-191 -58 -205 -60 -230 -37 -28 26 -18 36 57 50 33 7 78 16 100 21 22 5 67 14
100 20 33 5 61 12 64 15 10 10 21 3 21 -15z m-225 -295 c2 -6 6 -33 9 -61 4
-34 3 -44 -3 -30 -9 19 -10 18 -11 -5 -2 -18 -4 -14 -10 15 -4 22 -5 46 -2 53
4 12 -4 13 -39 7 -76 -12 -240 -45 -249 -50 -4 -2 -11 -19 -15 -37 l-7 -33 -9
45 c-5 25 -7 50 -5 55 2 6 30 16 62 23 33 7 77 16 99 21 56 13 176 11 180 -3z
m-42 -68 c12 -47 18 -143 10 -154 -8 -11 -166 -44 -210 -44 -24 0 -26 7 -38
121 l-6 56 58 13 c32 7 72 16 88 20 60 16 92 12 98 -12z"/>
<path d="M2673 3913 c12 -12 34 -18 70 -18 34 -1 66 -9 92 -23 22 -12 78 -37
124 -56 82 -35 84 -35 100 -16 22 27 103 30 130 6 14 -13 28 -15 59 -10 51 8
81 1 110 -26 18 -17 22 -32 22 -77 0 -54 2 -57 58 -117 32 -35 77 -98 100
-144 46 -87 62 -106 62 -71 0 41 -92 199 -142 244 -47 43 -48 44 -48 105 0 52
-4 64 -25 84 -28 26 -65 36 -131 36 -23 0 -46 5 -49 10 -8 13 -81 13 -143 0
-43 -10 -57 -8 -114 13 -35 14 -82 34 -104 44 -22 12 -72 23 -114 27 -71 6
-74 6 -57 -11z"/>
<path d="M1248 3665 c-67 -39 -146 -75 -207 -94 -92 -30 -151 -65 -151 -91 0
-16 10 -12 47 16 18 14 64 34 101 44 37 10 88 28 113 38 52 23 225 128 234
142 15 24 -39 3 -137 -55z"/>
<path d="M796 3378 c-39 -67 -48 -98 -50 -173 -2 -56 -8 -78 -29 -112 -27 -42
-77 -177 -77 -207 0 -9 -6 -16 -13 -16 -21 0 -57 -74 -57 -117 0 -39 11 -62
71 -143 l22 -29 -33 -146 c-29 -131 -33 -171 -14 -152 6 5 37 117 75 271 5 22
6 42 1 45 -4 3 -27 33 -50 66 -44 63 -51 95 -30 140 l11 25 19 -20 c27 -29 36
-18 31 34 -6 46 21 143 59 219 20 40 32 46 42 21 14 -37 17 -1 6 63 -11 62
-10 74 10 133 12 35 30 76 41 91 23 32 24 49 4 49 -8 0 -25 -19 -39 -42z"/>
<path d="M3960 3002 c0 -5 9 -17 20 -27 32 -29 80 -144 87 -206 12 -117 -33
-249 -116 -341 -48 -54 -137 -126 -190 -152 -90 -47 -222 -58 -416 -35 -138
16 -163 7 -52 -20 35 -8 66 -26 108 -63 74 -66 112 -119 158 -221 69 -153 112
-231 121 -217 20 33 51 -84 59 -220 l6 -105 18 50 c21 61 65 97 207 170 86 45
180 115 180 135 0 4 -11 7 -25 6 -15 0 -25 -7 -25 -16 0 -17 -69 -66 -150
-105 -30 -15 -82 -47 -116 -70 l-61 -44 -13 67 c-20 102 -37 143 -79 187 -22
22 -49 63 -61 90 -71 159 -102 214 -159 275 -34 35 -61 66 -61 68 0 2 44 1 98
-2 111 -8 178 2 255 38 59 28 240 170 245 192 5 23 20 16 37 -16 18 -35 19
-48 3 -32 -14 14 -58 16 -58 3 0 -5 8 -12 18 -15 22 -7 136 -116 128 -123 -2
-2 -13 0 -24 6 -31 16 -33 -7 -6 -49 28 -43 54 -146 54 -220 1 -51 2 -53 15
-36 8 11 15 38 15 61 0 44 -36 184 -51 199 -12 13 -12 26 0 26 5 0 13 -9 16
-20 3 -11 10 -20 15 -20 5 0 8 6 6 13 -3 6 -7 24 -10 38 -3 15 -22 46 -41 69
-19 23 -35 50 -35 59 0 10 -11 39 -24 64 l-25 45 32 74 c26 62 31 86 31 158 1
103 -21 181 -67 242 -30 40 -67 62 -67 40z"/>
<path d="M1437 2933 c-4 -3 -7 -24 -7 -45 0 -21 -9 -55 -19 -76 -25 -47 -113
-156 -125 -154 -5 0 -19 32 -31 69 -30 93 -72 183 -84 183 -17 0 -14 -14 20
-95 18 -42 30 -77 28 -80 -3 -2 -22 0 -44 5 -22 5 -57 10 -77 10 -39 0 -60 16
-34 26 22 9 20 24 -4 24 -27 0 -44 -34 -30 -60 8 -16 21 -20 57 -20 25 0 70
-8 100 -17 50 -16 54 -19 67 -62 l13 -46 48 50 c26 28 68 79 93 114 39 55 47
72 50 123 4 53 -3 70 -21 51z"/>
<path d="M2642 2878 c-7 -7 -12 -18 -12 -25 0 -7 -5 -22 -12 -33 -17 -26 -1
-40 134 -119 59 -34 139 -92 179 -129 53 -49 71 -61 67 -44 -7 26 -1 28 23 6
14 -13 22 -13 39 -4 24 13 37 6 42 -25 2 -14 -3 -20 -17 -20 -24 0 -26 -24 -4
-38 43 -27 63 29 38 102 -10 27 -15 32 -34 27 -15 -4 -25 -1 -29 9 -7 20 -26
19 -26 -1 0 -14 -3 -14 -15 -4 -11 9 -19 10 -28 1 -10 -8 -21 -2 -47 24 -19
19 -86 69 -150 110 -115 74 -147 107 -129 136 20 31 5 51 -19 27z"/>
<path d="M3110 2621 c0 -5 15 -20 33 -32 49 -34 67 -60 67 -100 0 -49 -33 -79
-87 -79 -36 0 -43 4 -67 40 -26 40 -46 52 -46 28 0 -16 56 -114 70 -123 5 -3
10 -17 10 -30 0 -28 19 -44 22 -18 0 10 2 23 3 28 2 6 3 18 4 28 1 11 9 17 27
17 16 0 39 13 60 34 28 28 34 42 34 76 0 38 -6 49 -49 91 -44 45 -81 63 -81
40z"/>
<path d="M1206 1911 c-7 -11 61 -74 102 -95 66 -34 54 -110 -28 -184 -46 -41
-124 -80 -185 -92 -73 -15 -101 -29 -139 -69 -24 -25 -26 -31 -12 -31 9 0 32
11 50 25 19 14 47 25 67 26 55 2 75 11 173 79 113 79 148 124 144 190 -3 41
-7 47 -55 80 -28 19 -65 45 -81 58 -17 12 -33 18 -36 13z"/>
<path d="M2560 1007 c0 -7 -13 -23 -29 -35 -25 -18 -29 -26 -25 -59 2 -21 9
-114 14 -207 9 -163 9 -171 -10 -188 -26 -25 -25 -29 10 -63 17 -16 30 -35 30
-42 0 -29 41 -92 82 -128 53 -45 75 -55 158 -65 58 -8 71 -6 118 15 72 33 137
81 152 113 6 14 14 57 17 94 4 45 9 65 17 61 6 -4 4 1 -4 11 -12 15 -15 56
-15 205 -1 196 2 234 16 225 5 -3 6 -10 3 -16 -5 -7 -2 -8 5 -4 19 12 -14 43
-55 50 -25 5 -34 12 -34 26 0 15 -7 20 -25 20 -16 0 -25 -6 -25 -15 0 -8 -4
-15 -10 -15 -5 0 -10 7 -10 15 0 8 -4 15 -10 15 -5 0 -10 -6 -10 -12 0 -10
-32 -12 -137 -10 -76 2 -140 7 -143 11 -10 14 -80 12 -80 -2z m92 -107 c45 0
164 -54 178 -80 6 -11 19 -20 29 -20 10 0 35 -7 54 -15 39 -16 54 -19 44 -8
-4 4 4 18 17 32 13 14 26 40 28 56 2 22 9 31 25 33 22 3 22 3 25 -180 2 -101
3 -184 3 -185 -1 -1 -30 5 -65 13 -51 13 -96 15 -210 10 -80 -4 -164 -9 -186
-12 l-42 -6 -6 119 c-4 65 -8 148 -11 184 -2 36 -2 69 1 71 3 3 22 2 42 -3 20
-5 54 -9 74 -9z m363 -390 c18 -9 30 -23 30 -35 0 -28 -89 -47 -235 -49 -127
-1 -188 14 -230 59 l-23 24 24 5 c48 11 87 13 244 12 122 -1 167 -5 190 -16z
m38 -80 c-9 -32 -106 -125 -159 -151 -55 -27 -152 -31 -195 -9 -59 32 -119 97
-119 132 0 16 3 16 38 1 71 -30 334 -30 365 1 10 10 63 43 74 46 0 0 -1 -9 -4
-20z"/>
</g>
</svg>
