<?xml version="1.0" standalone="no"?>
<!DOCTYPE svg PUBLIC "-//W3C//DTD SVG 20010904//EN"
 "http://www.w3.org/TR/2001/REC-SVG-20010904/DTD/svg10.dtd">
<svg version="1.0" xmlns="http://www.w3.org/2000/svg"
 width="590.000000pt" height="548.000000pt" viewBox="0 0 590.000000 548.000000"
 preserveAspectRatio="xMidYMid meet">
<metadata>
Created by potrace 1.16, written by Peter Selinger 2001-2019
</metadata>
<g transform="translate(0.000000,548.000000) scale(0.100000,-0.100000)"
fill="#000000" stroke="none">
<path d="M2747 5459 c-38 -11 -92 -30 -120 -43 -29 -13 -67 -29 -86 -36 l-33
-13 3 -91 c2 -50 -1 -117 -5 -148 -5 -36 -4 -68 3 -90 11 -33 9 -36 -31 -79
-43 -45 -66 -57 -288 -154 -186 -80 -189 -82 -216 -150 -13 -33 -22 -66 -19
-72 2 -7 21 -13 42 -13 l38 -1 -46 -18 c-72 -28 -271 -34 -377 -11 -76 17 -83
17 -91 2 -8 -14 -15 -6 -36 41 -23 52 -24 60 -10 73 33 33 8 69 -52 77 -24 3
-43 2 -43 -3 0 -4 -30 0 -67 10 -38 10 -75 20 -83 22 -18 4 -27 -39 -11 -55 6
-6 11 -28 11 -48 0 -21 4 -40 9 -43 5 -3 12 -18 16 -33 3 -16 19 -55 35 -88
37 -78 43 -123 29 -194 -10 -54 -9 -61 15 -109 l26 -52 -65 0 c-63 0 -65 1
-65 26 0 22 -3 24 -22 18 -13 -3 -34 -12 -48 -19 -14 -7 -31 -10 -39 -7 -7 2
-17 -2 -22 -9 -6 -10 -13 -7 -30 14 -19 26 -23 27 -38 13 -10 -9 -24 -16 -31
-16 -7 0 -27 -10 -44 -23 -54 -41 -54 -41 -80 11 -13 26 -39 63 -56 82 -18 19
-27 36 -21 38 6 2 11 10 11 18 0 14 -18 19 -55 15 -11 -1 -56 -5 -100 -9 -74
-7 -80 -9 -85 -32 -5 -22 -11 -25 -50 -25 -25 0 -45 -5 -47 -12 -6 -18 -33 -4
-33 17 0 10 -7 21 -16 24 -24 9 -27 8 -21 -14 6 -22 10 -21 -113 -25 -54 -2
-87 -9 -116 -24 -37 -19 -43 -28 -58 -80 -24 -87 -23 -95 19 -88 33 5 49 -6
23 -16 -10 -4 -10 -7 0 -18 6 -7 12 -23 12 -36 0 -22 3 -23 41 -17 30 5 43 3
50 -7 21 -34 10 -39 -76 -39 -75 0 -85 -2 -85 -18 0 -11 12 -23 33 -30 30 -11
97 -95 97 -123 0 -7 14 -9 40 -5 22 3 58 9 79 12 27 4 50 1 73 -11 18 -9 65
-30 105 -46 70 -30 73 -33 115 -104 44 -76 62 -90 71 -55 7 28 57 28 64 -1 5
-19 12 -20 73 -17 61 3 68 1 77 -19 9 -19 8 -23 -9 -29 -15 -4 -18 -13 -16
-42 3 -33 7 -38 53 -54 38 -14 56 -16 73 -8 l24 10 -21 -33 c-12 -19 -21 -37
-21 -40 0 -4 22 -19 49 -35 l50 -28 -23 -27 c-26 -30 -46 -21 -46 20 0 18 -6
23 -25 23 -18 0 -25 -5 -25 -20 0 -11 7 -23 15 -26 9 -4 28 -27 43 -53 15 -25
59 -95 99 -155 40 -59 73 -112 73 -117 0 -5 10 -9 23 -9 13 0 48 -18 77 -40
29 -22 60 -40 67 -40 15 0 16 -9 3 -30 -7 -12 -12 -12 -28 3 -11 10 -29 19
-41 20 -11 1 -21 5 -21 9 0 4 -11 8 -25 8 -25 0 -32 -15 -17 -35 11 -17 60
-35 92 -35 17 0 38 -9 50 -22 30 -31 43 -58 30 -58 -5 0 -10 5 -10 10 0 6 -7
10 -15 10 -8 0 -15 -2 -15 -5 0 -9 25 -50 35 -57 6 -5 4 -12 -5 -18 -12 -7
-17 -3 -22 17 -6 24 -63 82 -80 83 -22 1 -1 -94 24 -111 4 -3 13 -33 19 -66
10 -57 13 -62 50 -78 39 -18 51 -35 25 -35 -8 0 -17 -8 -20 -17 -5 -21 -19
-101 -21 -123 -2 -35 -18 -122 -41 -225 -14 -60 -26 -147 -28 -193 -3 -48 -17
-132 -35 -200 -16 -64 -45 -175 -63 -245 -35 -138 -70 -198 -123 -211 -14 -4
-25 -11 -25 -17 0 -23 22 -49 41 -49 11 0 22 -7 26 -16 4 -11 13 -13 34 -9 44
10 51 -1 29 -45 -26 -51 -26 -52 11 -74 23 -14 33 -15 39 -7 5 9 16 7 41 -7
19 -11 61 -23 93 -27 73 -8 106 -20 106 -38 0 -7 16 -29 36 -50 33 -33 40 -36
76 -32 22 3 47 9 56 14 17 10 28 3 77 -47 31 -31 35 -32 121 -34 49 -2 122 -1
162 0 l72 2 0 35 c0 32 2 35 30 35 17 0 57 -13 90 -30 39 -20 74 -30 103 -30
42 0 45 -2 62 -40 12 -26 25 -40 37 -40 10 0 18 5 18 11 0 16 80 5 91 -12 4
-7 5 -26 2 -41 -5 -25 -3 -28 23 -28 19 0 40 -12 65 -36 36 -35 37 -36 63 -19
23 16 30 16 78 2 83 -25 105 -28 148 -21 29 5 40 11 40 24 0 10 10 20 23 23
12 3 37 11 55 18 26 11 36 11 52 1 27 -16 89 -17 72 0 -7 7 -12 20 -12 30 0
10 -6 21 -14 24 -9 4 -17 26 -20 57 -18 175 -17 187 35 267 28 44 49 59 200
145 92 52 170 95 173 95 3 0 6 -6 6 -12 0 -26 60 -48 126 -48 56 0 64 -2 64
-19 0 -13 10 -20 31 -25 62 -12 96 -7 112 16 13 20 18 21 36 10 11 -6 46 -12
77 -12 55 0 56 -1 50 -25 -4 -14 -3 -25 1 -25 5 0 14 -14 21 -30 14 -32 32
-40 32 -15 0 20 47 20 67 0 12 -12 18 -13 29 -4 10 8 14 8 14 0 0 -6 6 -11 14
-11 8 0 16 -10 18 -22 3 -20 8 -23 48 -21 25 1 46 7 48 13 2 5 12 10 22 10 12
0 17 -6 14 -17 -3 -12 4 -22 23 -30 40 -19 63 -16 63 7 0 12 -6 20 -13 18 -7
-2 -14 0 -15 5 -7 23 0 27 33 21 19 -3 35 -2 35 3 0 15 56 43 85 43 32 0 54
24 55 59 0 16 -4 22 -15 17 -21 -8 -19 0 10 38 15 20 38 36 55 39 19 4 35 17
46 38 12 25 18 29 25 18 8 -12 12 -11 23 4 7 9 18 17 25 17 6 0 11 5 11 11 0
22 42 69 61 69 11 0 18 4 14 9 -3 5 11 15 30 22 22 8 35 20 35 31 0 10 0 20 0
23 2 16 54 121 63 127 8 5 8 14 -1 33 -7 14 -12 35 -12 45 0 13 -7 20 -20 20
-11 0 -20 -7 -20 -15 0 -25 -109 -25 -146 0 -13 8 -34 15 -46 15 -13 0 -28 4
-33 8 -23 16 -57 74 -51 88 3 9 1 24 -4 34 -14 27 9 110 30 110 26 0 30 11 15
41 -8 15 -15 37 -15 47 0 20 -15 30 -59 38 -34 7 -41 12 -41 33 0 10 -14 30
-31 45 -39 35 -33 50 22 54 25 2 53 11 64 22 11 10 30 21 42 24 20 7 36 33 32
52 -1 5 1 16 5 26 12 27 2 70 -19 82 -30 17 -44 38 -45 66 0 18 -8 29 -28 37
-15 7 -35 26 -44 41 l-17 29 44 32 c54 39 58 65 15 106 -16 16 -30 35 -30 42
0 7 -7 13 -16 13 -12 0 -14 8 -9 45 6 34 3 48 -9 60 -9 9 -16 23 -16 31 0 10
-6 13 -18 10 -46 -13 -141 -26 -156 -20 -27 10 -56 -24 -56 -66 0 -41 -11 -55
-52 -62 -19 -4 -28 -1 -28 8 0 8 9 14 19 14 14 0 24 13 36 51 18 52 16 60 -19
72 -5 1 -1 18 8 35 9 18 14 41 11 51 -4 13 10 31 51 66 52 45 55 50 53 89 -3
62 -2 63 51 92 28 15 50 33 50 39 0 7 11 20 25 29 14 9 25 23 25 32 0 19 28
65 53 85 28 23 16 52 -18 43 -20 -5 -24 -3 -19 10 3 9 10 16 15 16 5 0 9 7 9
15 0 21 50 19 65 -2 12 -16 18 -16 61 -5 49 13 81 41 89 76 3 12 1 86 -3 166
l-7 145 31 95 c18 52 45 134 60 183 15 48 35 95 43 105 36 39 73 102 69 118
-1 10 -16 22 -33 26 -73 22 -140 36 -148 31 -5 -3 -24 -2 -43 2 -24 4 -38 13
-44 31 -7 18 -17 24 -40 24 -19 0 -30 -5 -30 -14 0 -23 -18 -29 -66 -21 -28 4
-44 11 -44 21 0 8 -9 14 -20 14 -11 0 -20 4 -20 9 0 21 -43 5 -52 -19 l-10
-25 -15 30 c-8 17 -23 39 -33 50 -10 11 -25 34 -33 51 -17 33 -47 49 -114 59
-35 5 -48 3 -70 -15 -23 -18 -28 -19 -35 -5 -5 8 -18 15 -28 15 -11 0 -20 4
-20 9 0 18 -51 22 -82 6 -17 -8 -35 -15 -41 -15 -5 0 -29 23 -54 50 -25 28
-50 50 -57 50 -6 0 -29 12 -50 26 -21 14 -49 27 -62 28 -20 1 -24 6 -24 32 0
16 -5 35 -11 41 -7 7 -7 24 2 56 13 54 7 77 -19 77 -28 0 -66 -45 -59 -70 8
-30 -38 -50 -113 -50 -61 0 -72 7 -45 30 19 16 19 44 0 64 -13 12 -13 19 -4
34 16 25 6 50 -24 61 -14 5 -27 17 -31 26 -4 12 -12 15 -24 10 -9 -4 -36 -8
-59 -9 -42 -3 -43 -2 -59 41 -11 29 -23 43 -35 43 -10 0 -20 4 -23 9 -3 4 -16
6 -28 4 -19 -4 -27 4 -45 44 -12 26 -34 62 -47 78 l-25 30 -40 -22 c-51 -29
-69 -29 -81 2 -6 15 -17 25 -30 25 -17 0 -20 7 -20 39 0 21 -7 55 -15 75 -13
31 -19 36 -48 35 -17 -1 -63 -10 -100 -20z m127 -21 c9 -13 16 -43 16 -70 0
-41 3 -48 20 -48 11 0 26 -12 34 -29 22 -41 42 -45 92 -16 l43 25 14 -22 c8
-13 27 -48 43 -78 23 -42 34 -55 52 -54 12 0 22 -3 22 -7 0 -4 10 -9 23 -11
16 -2 26 -15 36 -45 l15 -41 54 4 c30 3 59 7 63 10 5 3 9 1 9 -4 0 -5 12 -15
26 -22 17 -10 24 -20 20 -32 -3 -10 -9 -27 -12 -38 -4 -14 -2 -20 9 -20 24 0
28 -28 6 -44 -12 -8 -19 -22 -17 -33 3 -15 15 -19 73 -21 93 -4 145 12 145 46
0 14 7 34 17 44 19 21 41 25 24 4 -6 -7 -10 -24 -10 -37 1 -13 -2 -32 -6 -41
-5 -12 -2 -20 9 -24 11 -4 16 -19 16 -45 0 -35 3 -39 26 -39 14 0 42 -11 62
-25 20 -14 45 -25 55 -25 10 0 21 -8 24 -18 2 -10 14 -22 26 -27 12 -6 23 -20
25 -32 3 -20 9 -23 47 -23 29 0 45 5 49 15 6 17 56 21 56 5 0 -6 10 -15 23
-20 12 -6 30 -15 39 -22 14 -10 23 -8 48 11 27 20 35 21 59 11 15 -6 32 -10
37 -9 22 7 54 -14 60 -39 4 -15 17 -38 29 -52 12 -14 28 -35 34 -47 13 -26 55
-31 68 -8 11 20 51 8 59 -17 4 -14 12 -18 27 -14 12 3 41 6 65 6 29 0 42 4 42
14 0 19 38 9 45 -13 7 -24 53 -39 116 -39 64 0 139 -20 139 -36 0 -12 -45 -82
-67 -104 -7 -7 -18 -32 -24 -55 -7 -23 -32 -103 -57 -177 l-44 -135 10 -150
c10 -142 10 -151 -9 -171 -10 -11 -16 -24 -12 -27 3 -4 0 -7 -9 -7 -8 0 -23
-9 -33 -20 -24 -27 -55 -26 -55 1 0 19 -4 21 -31 15 -17 -3 -40 -6 -50 -6 -11
0 -19 -5 -19 -10 0 -6 -10 -24 -21 -39 -23 -32 -19 -51 12 -51 18 0 19 -2 6
-15 -9 -8 -23 -35 -32 -60 -10 -24 -26 -47 -36 -50 -10 -3 -21 -15 -24 -25 -3
-10 -23 -29 -43 -41 -49 -30 -52 -36 -50 -87 2 -41 -1 -45 -65 -104 -53 -47
-65 -63 -56 -74 8 -10 7 -22 -2 -48 -12 -32 -11 -37 6 -50 16 -11 17 -19 9
-47 -7 -26 -16 -35 -36 -37 -24 -3 -27 -7 -26 -38 1 -28 5 -34 24 -34 13 0 26
5 29 10 3 6 17 10 30 10 15 0 31 11 44 29 23 32 27 51 11 51 -6 0 -6 7 1 19 7
10 20 16 29 14 9 -3 43 2 76 11 50 13 60 13 67 1 4 -8 14 -20 22 -28 11 -11
12 -23 5 -48 -13 -45 -13 -46 10 -52 13 -3 18 -10 14 -21 -4 -10 -1 -16 9 -16
18 0 59 -48 54 -63 -1 -5 -21 -19 -42 -32 -22 -12 -42 -30 -43 -39 -5 -22 46
-96 64 -96 8 0 14 -7 14 -15 0 -24 33 -85 46 -85 23 0 38 -29 26 -53 -6 -12
-12 -33 -14 -47 -2 -14 -10 -26 -21 -28 -10 -2 -30 -15 -45 -29 -21 -19 -34
-24 -58 -20 -59 10 -72 -33 -25 -83 17 -19 27 -39 24 -50 -3 -13 4 -20 28 -29
17 -6 39 -11 48 -11 18 0 46 -73 30 -78 -5 -2 -9 -11 -9 -20 0 -9 -9 -32 -21
-51 -17 -28 -19 -39 -10 -58 6 -13 11 -33 11 -45 0 -35 42 -98 70 -104 14 -3
55 -14 91 -25 51 -15 73 -17 93 -9 15 5 35 10 45 10 24 0 34 -39 17 -65 -7
-11 -21 -45 -30 -76 -15 -48 -25 -60 -63 -85 -25 -15 -56 -43 -69 -60 -14 -17
-45 -39 -69 -49 -30 -11 -45 -23 -45 -35 0 -21 -16 -35 -51 -43 -24 -6 -89
-83 -89 -106 0 -6 12 -11 26 -11 23 0 24 -1 10 -16 -9 -8 -19 -13 -24 -10 -12
7 -92 -31 -92 -45 0 -8 -11 -10 -34 -6 -26 4 -36 1 -41 -10 -4 -13 -8 -14 -17
-5 -7 7 -38 12 -70 12 -56 0 -108 15 -108 32 0 4 -10 8 -23 8 -13 0 -27 3 -31
7 -4 4 -23 6 -42 4 -27 -2 -34 1 -34 16 0 10 -9 29 -19 43 -16 20 -27 24 -68
22 -26 -1 -41 1 -33 5 43 17 67 63 33 63 -10 0 -29 9 -43 20 -14 11 -28 20
-32 20 -13 0 -9 -58 4 -62 7 -3 9 -12 5 -22 -7 -18 -8 -18 -28 0 -20 18 -21
18 -35 -1 -8 -10 -14 -25 -14 -32 0 -24 -53 -15 -76 14 -20 26 -25 27 -97 25
l-75 -3 -30 37 -30 36 -79 -43 c-43 -24 -90 -50 -105 -59 -14 -8 -61 -34 -105
-57 -54 -29 -85 -53 -101 -78 -17 -28 -27 -35 -42 -30 -16 5 -20 2 -20 -19 0
-14 5 -28 11 -31 6 -5 4 -11 -6 -19 -15 -11 -15 -18 -1 -86 8 -41 16 -101 18
-132 2 -32 6 -58 10 -58 5 0 8 -8 7 -17 0 -11 -3 -13 -6 -5 -6 16 -56 15 -100
-3 -19 -8 -44 -15 -54 -15 -11 0 -21 -9 -25 -24 -5 -22 -10 -24 -52 -21 -26 2
-74 12 -107 23 -54 18 -61 18 -83 4 -22 -14 -25 -14 -34 2 -5 10 -30 26 -54
36 -40 18 -43 21 -32 39 9 15 8 22 -4 35 -20 19 -126 38 -135 23 -3 -5 -14 6
-25 27 -17 33 -22 36 -61 36 -37 0 -67 11 -152 53 -26 13 -94 17 -101 5 -3 -5
-6 -25 -6 -44 0 -34 0 -34 -47 -34 -26 0 -52 5 -59 12 -9 9 -16 8 -29 -4 -14
-12 -33 -14 -81 -10 -55 4 -66 8 -85 33 -11 16 -25 29 -29 29 -5 0 -19 12 -32
26 -21 25 -24 26 -47 11 -13 -8 -41 -15 -62 -14 -34 1 -42 6 -69 49 -27 42
-36 48 -77 54 -25 4 -57 8 -71 8 -34 1 -90 33 -90 51 0 20 -36 19 -44 -1 -5
-13 -9 -14 -21 -4 -12 10 -11 18 8 56 18 39 19 46 7 54 -13 9 -52 14 -73 11
-4 -1 -10 5 -13 12 -3 9 -14 12 -30 9 -17 -3 -24 0 -24 12 0 9 8 16 19 16 22
0 68 51 86 95 7 17 20 64 30 105 9 41 32 131 50 200 19 69 37 154 41 190 9 85
33 122 74 113 25 -4 30 -2 30 13 0 11 -14 32 -31 48 -25 24 -32 27 -40 15 -12
-19 -11 -3 3 65 8 43 13 54 20 42 5 -9 16 -16 23 -16 22 0 18 28 -5 42 -11 7
-20 16 -20 19 0 4 9 9 20 12 23 6 26 34 9 81 -8 24 -8 48 3 100 l13 70 68
-102 c38 -56 78 -124 89 -150 23 -52 57 -102 70 -102 26 0 1 76 -67 209 -75
144 -134 223 -180 241 -13 5 -25 20 -27 34 -5 22 -2 26 20 26 19 0 23 4 19 19
-3 12 3 27 13 36 27 25 24 92 -6 137 -24 34 -25 38 -10 67 21 40 21 41 -19 41
-24 0 -50 11 -84 35 -26 19 -55 35 -62 35 -8 0 -53 60 -100 133 l-86 132 28
35 c16 19 29 40 29 47 0 7 -21 24 -46 39 -32 19 -42 30 -35 37 6 6 11 20 11
30 0 15 5 18 23 14 12 -3 45 -9 72 -12 64 -9 52 4 -35 38 -61 24 -66 25 -92 9
-23 -14 -32 -14 -48 -4 -11 6 -26 12 -34 12 -7 0 -16 9 -19 21 -4 15 0 23 14
26 12 3 19 14 19 29 0 13 5 24 10 24 6 0 10 6 10 14 0 19 -32 29 -102 35 -13
1 -16 8 -12 39 5 31 3 35 -8 22 -19 -21 -74 -25 -81 -5 -10 24 -27 18 -27 -10
0 -28 -27 -35 -36 -10 -9 23 -24 18 -24 -7 -1 -19 -4 -17 -24 16 -14 21 -22
45 -19 52 3 8 -9 20 -34 30 -21 9 -66 29 -100 45 -34 16 -66 29 -72 29 -6 0
-11 4 -11 10 0 5 -10 14 -21 21 -18 9 -24 8 -31 -5 -6 -10 -21 -15 -41 -14
-18 1 -44 -2 -58 -6 -21 -6 -27 -3 -37 18 -18 39 -64 92 -96 111 -13 7 3 10
59 9 64 -1 77 1 86 17 14 27 -8 57 -50 69 -19 5 -38 7 -43 4 -4 -3 -8 4 -8 15
0 18 5 20 50 14 42 -5 50 -3 50 11 0 9 -7 19 -15 22 -8 4 -15 12 -15 18 0 8
-11 11 -28 10 -104 -11 -122 -11 -113 0 5 6 14 30 20 53 9 32 19 45 49 60 52
28 94 37 102 23 6 -9 22 -8 63 4 67 19 67 19 67 2 0 -15 45 -30 60 -21 6 4 10
13 10 21 0 18 21 18 46 -1 30 -23 43 -18 50 19 4 25 14 38 32 45 29 12 142 11
142 -1 0 -4 15 -23 32 -41 18 -19 46 -60 62 -91 29 -57 56 -81 64 -58 2 7 8
12 14 12 5 0 24 11 43 25 35 27 81 27 92 -1 8 -21 41 -17 53 6 6 12 21 20 35
20 14 0 25 5 25 10 0 6 7 10 15 10 8 0 15 -9 15 -20 0 -19 7 -20 100 -20 100
0 117 7 81 32 -40 29 -55 78 -56 188 0 105 -18 177 -62 246 -8 12 -16 46 -20
75 -3 30 -11 57 -17 61 -18 12 24 9 81 -6 28 -8 72 -11 97 -9 41 5 46 4 46
-15 0 -11 -5 -22 -12 -24 -9 -3 -8 -18 5 -57 9 -29 17 -62 17 -72 0 -23 48
-38 60 -19 7 11 23 11 87 -4 66 -14 99 -15 218 -7 128 8 245 33 245 52 0 3
-21 12 -47 19 -27 7 -49 14 -51 15 -2 2 4 25 13 52 19 58 26 62 298 178 133
58 162 74 188 107 20 25 39 38 55 38 28 0 28 -1 9 38 -10 18 -15 53 -14 89 1
32 1 100 0 152 -2 103 1 110 69 132 19 6 55 21 80 32 45 20 130 45 162 46 9 1
24 -9 32 -21z"/>
<path d="M5700 1001 c-8 -34 -8 -60 -2 -85 10 -34 1 -58 -13 -36 -12 19 -54
11 -70 -14 -9 -13 -26 -27 -39 -30 -12 -3 -39 -17 -60 -31 -21 -14 -42 -23
-47 -20 -5 4 -9 -3 -9 -13 0 -11 -7 -25 -15 -32 -8 -7 -15 -21 -15 -31 0 -9
-7 -24 -15 -33 -20 -20 -19 -52 3 -61 16 -6 16 -7 -1 -19 -9 -8 -15 -20 -13
-27 2 -8 7 -26 10 -41 5 -23 12 -28 36 -28 20 0 30 -5 30 -15 0 -8 -4 -15 -10
-15 -5 0 -10 -7 -10 -15 0 -8 -7 -15 -15 -15 -10 0 -14 -10 -13 -35 1 -39 7
-41 48 -20 18 9 31 11 35 5 3 -6 2 -10 -3 -10 -6 0 -13 -12 -17 -27 -3 -15
-11 -31 -17 -34 -17 -11 12 -35 57 -46 22 -6 32 -11 23 -12 -11 -1 -18 -9 -18
-20 0 -11 -2 -26 -5 -33 -6 -15 72 -58 106 -58 11 0 23 -8 26 -17 9 -24 23
-33 56 -33 15 0 27 -4 27 -10 0 -5 5 -10 11 -10 8 0 9 13 5 40 -8 51 6 80 35
73 19 -5 20 -3 14 18 -9 28 -9 229 0 437 6 127 5 145 -10 156 -15 11 -25 87
-25 192 -1 17 -44 54 -63 54 -3 0 -10 -22 -17 -49z m50 -21 c0 -17 6 -39 13
-50 10 -17 9 -22 -2 -29 -11 -7 -10 -18 3 -65 9 -31 20 -56 25 -56 10 0 7 -54
-4 -82 -5 -11 -3 -18 5 -18 9 0 10 -19 5 -77 -4 -43 -8 -132 -10 -199 -1 -67
-8 -130 -14 -142 -6 -12 -10 -22 -7 -22 9 0 -42 -114 -53 -118 -6 -2 -15 8
-21 22 -5 14 -15 27 -22 27 -59 6 -102 21 -114 40 -4 8 3 20 19 34 34 26 34
45 2 45 -14 0 -28 7 -31 15 -4 8 -10 12 -15 9 -5 -3 -9 2 -9 10 0 8 4 17 9 20
5 3 11 17 13 31 7 33 -20 49 -56 35 -16 -6 -27 -6 -31 0 -4 6 1 10 9 10 9 0
16 7 16 15 0 7 8 18 17 23 14 8 15 14 4 39 -10 24 -17 29 -35 26 -20 -4 -24 0
-28 26 -4 26 -1 32 19 37 23 6 33 24 13 24 -6 0 -15 12 -21 26 -7 20 -6 31 5
43 7 9 17 31 21 49 3 17 12 32 18 32 7 0 23 10 37 23 26 24 32 27 51 27 6 0
24 14 40 31 23 25 31 28 48 20 11 -6 27 -11 35 -11 20 0 30 39 18 70 -5 14 -7
40 -5 58 7 42 33 43 33 2z"/>
</g>
</svg>
