<?xml version="1.0" standalone="no"?>
<!DOCTYPE svg PUBLIC "-//W3C//DTD SVG 20010904//EN"
 "http://www.w3.org/TR/2001/REC-SVG-20010904/DTD/svg10.dtd">
<svg version="1.0" xmlns="http://www.w3.org/2000/svg"
 width="991.000000pt" height="1086.000000pt" viewBox="0 0 991.000000 1086.000000"
 preserveAspectRatio="xMidYMid meet">
<metadata>
Created by potrace 1.16, written by Peter Selinger 2001-2019
</metadata>
<g transform="translate(0.000000,1086.000000) scale(0.100000,-0.100000)"
fill="#000000" stroke="none">
<path d="M9415 10704 c-16 -3 -122 -16 -235 -30 -240 -29 -931 -129 -1048
-150 -24 -5 -40 -17 -57 -44 -24 -38 -205 -431 -205 -445 0 -5 8 -18 18 -29
17 -21 17 -21 -5 -2 l-22 18 -42 -88 c-22 -49 -47 -103 -55 -121 -14 -32 -89
-169 -219 -398 -37 -66 -95 -169 -128 -230 -33 -60 -123 -220 -200 -355 -174
-306 -255 -460 -351 -671 -61 -134 -146 -303 -159 -316 -8 -7 -1712 -71 -2762
-103 -176 -6 -855 -14 -1510 -20 -1247 -10 -1887 -24 -1964 -41 -64 -14 -117
-52 -142 -101 -19 -37 -21 -53 -16 -147 7 -149 51 -338 85 -370 25 -22 30 -23
131 -17 58 4 136 9 172 12 l66 6 6 -274 c6 -241 21 -488 43 -728 l7 -75 66
-70 65 -70 -62 60 c-48 46 -62 55 -62 40 0 -111 129 -1000 214 -1475 111 -624
145 -830 161 -990 35 -345 67 -504 137 -682 25 -63 36 -79 62 -90 41 -17 1217
-18 1516 0 790 46 1106 65 1109 68 2 2 -4 14 -15 26 -17 21 -17 21 8 -1 l28
-24 177 12 c724 49 1027 62 1091 45 19 -6 22 -13 22 -58 0 -28 9 -159 20 -291
11 -132 20 -263 20 -291 l0 -51 -407 -6 c-430 -7 -627 -15 -1203 -47 -438 -25
-591 -35 -935 -62 -191 -15 -340 -20 -511 -19 -259 2 -304 -3 -387 -47 -79
-42 -149 -166 -183 -322 -25 -117 -11 -201 43 -261 75 -83 178 -115 349 -107
52 2 94 3 94 1 0 -1 -24 -38 -54 -81 -64 -95 -76 -134 -49 -165 18 -22 18 -22
-3 -4 -21 17 -22 17 -29 0 -4 -10 -10 -68 -13 -128 -5 -123 14 -218 64 -318
155 -306 546 -430 889 -282 112 48 248 159 318 258 85 121 112 210 105 341 -8
130 -59 243 -186 411 l-53 70 118 7 c428 24 1160 38 1151 21 -46 -90 -53 -113
-56 -197 -3 -72 -2 -87 9 -81 11 6 11 5 2 -5 -20 -22 39 -173 115 -290 285
-438 814 -484 1174 -102 56 59 138 178 138 199 0 4 -10 18 -22 32 l-23 26 27
-24 27 -23 16 53 c25 83 29 192 11 279 -30 142 -101 256 -214 340 l-32 25 79
62 c235 186 264 301 196 773 -44 304 -29 454 61 610 108 189 212 450 389 975
64 193 142 415 172 495 76 203 133 359 283 785 428 1210 550 1514 922 2285
360 746 395 819 445 935 l34 80 -28 -25 c-17 -15 -14 -10 8 15 37 40 53 74
147 305 94 233 161 413 157 421 -3 4 -2 9 3 11 4 1 43 90 87 197 44 106 84
199 90 206 7 10 111 25 337 49 181 20 340 36 355 36 16 0 41 7 56 15 15 8 25
10 22 5 -7 -12 -9 -12 139 0 138 12 166 24 166 73 0 17 -4 48 -9 67 -6 19 -15
55 -21 79 l-11 44 -42 -39 -42 -39 41 45 41 45 -29 125 c-16 69 -42 185 -59
257 -39 169 -45 177 -140 179 -41 1 -87 0 -104 -2z m128 -241 c26 -98 82 -346
89 -393 2 -15 9 -24 17 -22 12 3 12 0 0 -15 -23 -29 -36 -34 -102 -38 -34 -2
-168 -12 -297 -24 -129 -11 -320 -25 -424 -32 l-189 -12 -20 -51 c-12 -28 -48
-105 -80 -170 -32 -66 -70 -147 -83 -179 l-25 -59 23 -27 23 -26 -26 23 -26
23 -36 -88 c-20 -48 -66 -167 -102 -263 -124 -328 -186 -474 -368 -872 l-182
-398 -432 -2 c-238 -2 -433 -2 -433 -1 0 1 38 70 85 155 47 84 169 317 270
518 101 201 236 460 300 575 64 116 141 253 170 305 121 219 206 380 239 451
l34 76 -26 29 -27 28 27 -23 c16 -14 29 -23 31 -20 2 2 16 36 32 74 43 107
171 371 182 378 5 4 115 21 244 38 129 17 403 55 609 84 206 29 398 53 426 54
l51 1 26 -97z m-1893 -2765 c0 -7 -34 -84 -75 -171 -41 -87 -75 -162 -75 -167
0 -6 -1 -10 -2 -11 -7 -1 -377 -28 -518 -38 -171 -12 -539 -24 -1265 -42 -382
-10 -620 -10 -1165 1 -716 13 -1170 8 -2395 -25 -291 -7 -717 -17 -945 -21
-228 -4 -420 -10 -426 -15 -15 -12 -138 -29 -215 -29 -78 0 -75 -5 -91 124
-13 107 -7 154 28 195 42 50 73 55 334 48 184 -6 275 -3 420 10 164 15 351 17
1615 18 913 1 1546 5 1750 13 176 7 534 19 795 27 642 21 1549 59 2020 84 80
5 160 9 178 10 20 0 32 -4 32 -11z m-227 -505 c-4 -10 -19 -42 -34 -73 -95
-196 -254 -578 -367 -880 -116 -309 -128 -343 -327 -910 -200 -569 -265 -749
-345 -955 -125 -324 -300 -791 -300 -803 0 -21 -135 -354 -175 -431 -44 -85
-48 -89 -108 -119 l-62 -31 -370 -5 c-355 -4 -566 -16 -1345 -71 -364 -26
-702 -46 -1115 -67 -342 -17 -1376 -18 -1397 0 -37 30 -97 285 -123 522 -46
426 -49 445 -200 1295 -41 232 -60 345 -71 420 -3 17 -16 102 -29 190 -14 88
-34 232 -45 320 -11 88 -23 176 -26 195 -4 19 -8 58 -9 85 -2 28 -10 120 -19
205 -30 300 -53 834 -41 938 l7 58 856 12 c471 7 1156 17 1522 23 371 6 1010
9 1445 5 437 -3 894 -1 1040 4 717 26 1309 58 1485 79 36 5 86 9 112 10 41 1
46 -1 41 -16z m-1641 -4403 c-2 -52 7 -156 28 -302 25 -175 31 -246 28 -337
l-3 -116 -57 -85 c-95 -144 -250 -245 -471 -307 l-97 -27 22 -25 22 -26 -27
25 -27 26 -104 -18 c-196 -33 -303 -39 -841 -48 -491 -8 -963 -30 -1310 -60
-184 -16 -659 -60 -759 -70 -100 -10 -171 0 -210 31 -42 33 -66 97 -66 175 0
92 16 142 56 180 51 48 111 59 309 57 182 -3 452 10 710 32 88 8 284 21 435
30 151 8 352 19 445 25 172 10 776 36 1025 44 74 3 238 5 363 5 l228 1 26 26
c29 29 30 -4 -8 499 -10 143 -19 269 -19 281 0 19 7 21 98 27 53 4 117 13 142
21 25 8 50 14 55 15 6 1 9 -30 7 -79z m-221 -1265 c89 -34 141 -81 181 -163
32 -64 33 -72 33 -189 1 -106 4 -125 20 -145 19 -22 18 -22 -8 1 -26 24 -27
24 -27 4 0 -11 -18 -57 -40 -101 -96 -191 -317 -315 -565 -316 -89 -1 -106 2
-155 26 -171 85 -311 274 -343 465 -13 82 1 165 39 224 15 24 27 50 27 56 0 7
2 11 5 8 3 -2 14 2 26 10 11 8 41 15 66 15 65 0 271 27 387 50 54 11 102 20
107 20 5 0 -1 12 -15 28 l-24 27 28 -24 27 -25 78 26 c42 14 79 27 82 27 2 1
34 -10 71 -24z m-2477 -202 c204 -228 270 -377 233 -528 -39 -159 -135 -271
-299 -350 -225 -109 -437 -94 -613 42 -61 47 -127 140 -149 208 -48 152 11
379 135 518 78 87 123 106 301 122 357 33 350 34 392 -12z"/>
<path d="M5508 6935 c-3 -3 -112 -9 -242 -15 -247 -9 -277 -15 -293 -57 -4 -9
1 -80 10 -157 24 -205 27 -242 36 -441 8 -190 15 -218 63 -262 63 -59 162 -72
365 -48 178 20 199 27 212 69 14 45 31 233 31 345 0 195 -37 505 -66 548 -12
19 -24 23 -63 23 -26 0 -50 -2 -53 -5z m5 -167 c27 -111 42 -476 24 -599 -8
-55 -9 -57 -45 -63 -20 -3 -96 -9 -167 -13 -112 -5 -132 -4 -143 10 -10 11
-17 71 -23 189 -5 94 -16 239 -25 321 -9 82 -12 153 -7 158 8 8 89 13 279 17
98 2 102 1 107 -20z"/>
<path d="M3555 6919 c-204 -12 -229 -17 -274 -50 l-41 -29 0 -123 c0 -112 8
-291 26 -601 6 -100 10 -122 28 -143 l21 -24 220 20 c309 30 370 39 391 62 44
48 40 417 -5 649 -20 100 -56 216 -73 238 -12 13 -85 14 -293 1z m196 -156
c33 -88 51 -215 56 -414 l6 -206 -44 -7 c-72 -10 -352 -36 -356 -32 -4 4 -19
261 -29 488 l-7 167 34 5 c19 4 93 10 164 15 72 4 138 9 148 10 11 0 22 -10
28 -26z"/>
<path d="M4520 6923 c-218 -13 -292 -23 -328 -45 -20 -12 -40 -27 -44 -32 -15
-21 -5 -403 18 -750 5 -79 11 -103 28 -123 l21 -24 225 21 c381 35 394 39 406
117 15 88 8 371 -11 498 -18 124 -54 265 -80 316 -15 29 -16 29 -98 27 -45 -1
-107 -3 -137 -5z m142 -203 c31 -115 48 -263 48 -424 0 -118 -3 -156 -12 -156
-7 0 -42 -4 -78 -9 -36 -5 -101 -12 -145 -16 -44 -3 -98 -8 -121 -11 l-41 -6
-6 39 c-4 21 -7 51 -7 67 0 17 -10 41 -22 55 l-23 26 23 -20 23 -19 -6 89 c-4
50 -7 167 -8 260 l-2 170 160 11 c88 6 169 11 180 10 16 -1 23 -15 37 -66z"/>
<path d="M6060 6914 c-36 -7 -75 -18 -88 -24 -13 -5 -31 -10 -41 -10 -9 0 -27
-9 -39 -20 -20 -19 -22 -30 -22 -142 0 -172 28 -533 46 -598 22 -75 48 -108
108 -136 45 -21 66 -24 166 -24 133 1 302 21 323 38 8 7 18 29 22 50 11 61 7
308 -9 472 -8 85 -18 200 -21 255 -4 57 -13 108 -20 118 -26 36 -294 50 -425
21z m299 -146 c26 -66 59 -633 39 -654 -4 -4 -65 -8 -135 -8 -198 -2 -217 14
-229 175 -8 127 -10 134 -25 131 -10 -3 -10 0 1 13 10 12 11 50 6 174 l-7 159
53 11 c88 17 100 18 196 20 87 1 93 0 101 -21z"/>
<path d="M2795 6890 c-16 -4 -91 -8 -165 -9 -205 -2 -319 -16 -348 -44 -22
-20 -23 -27 -17 -77 3 -30 13 -111 21 -179 8 -68 18 -214 23 -325 6 -137 14
-213 24 -237 30 -72 123 -119 236 -119 31 0 121 7 201 16 179 21 179 21 196
141 35 246 -2 779 -57 826 -22 18 -62 20 -114 7z m10 -151 c4 -5 14 -76 22
-157 15 -143 14 -464 -2 -503 -5 -12 -35 -18 -143 -28 -137 -12 -194 -8 -210
13 -5 6 -14 101 -21 210 -6 109 -19 255 -27 324 -8 69 -12 128 -9 131 3 3 81
8 173 11 92 4 177 7 189 8 12 1 25 -3 28 -9z"/>
<path d="M1608 6840 c-80 -8 -99 -12 -185 -36 -84 -24 -83 -22 -83 -207 0 -89
7 -244 15 -344 21 -253 43 -313 134 -351 69 -30 141 -36 277 -23 182 18 198
21 217 40 28 27 34 245 13 476 -9 99 -19 223 -22 275 -6 105 -18 147 -43 155
-21 6 -200 25 -226 23 -11 0 -55 -4 -97 -8z m218 -143 c9 -12 44 -443 44 -538
l0 -127 -52 -6 c-87 -11 -200 -8 -243 6 -25 8 -44 23 -52 39 -20 41 -34 202
-36 410 l-2 193 35 9 c68 17 156 26 230 21 41 -3 75 -6 76 -7z"/>
<path d="M5670 5719 c-25 -4 -101 -8 -170 -9 -69 0 -168 -5 -220 -10 -79 -7
-98 -13 -112 -31 -17 -20 -26 -105 -10 -96 4 3 8 -18 8 -47 1 -28 9 -138 18
-245 9 -106 16 -232 16 -280 0 -102 12 -150 47 -191 41 -49 96 -72 188 -77 97
-5 371 29 391 49 54 54 49 724 -7 896 -17 51 -47 60 -149 41z m38 -234 c15
-97 21 -513 9 -557 -8 -30 -20 -33 -188 -46 -95 -7 -153 -2 -169 14 -4 5 -12
76 -17 157 -9 134 -12 150 -34 175 -22 25 -22 25 -1 8 27 -23 27 -33 6 162 -9
84 -13 156 -9 160 7 8 212 19 320 18 l70 -1 13 -90z"/>
<path d="M3717 5704 c-201 -13 -210 -14 -250 -42 l-42 -28 -3 -94 c-4 -123 27
-715 39 -757 6 -18 19 -35 29 -38 25 -8 407 26 573 51 65 10 71 33 71 284 0
163 -5 239 -18 315 -24 130 -62 263 -85 295 -23 31 -39 32 -314 14z m227 -201
c30 -117 46 -258 46 -415 0 -141 -2 -157 -17 -162 -16 -4 -117 -15 -309 -32
l-72 -6 -6 79 c-12 156 -28 574 -22 580 8 8 349 30 358 23 3 -3 14 -33 22 -67z"/>
<path d="M4785 5713 c-11 -1 -100 -7 -198 -12 -171 -10 -180 -11 -220 -38
l-42 -29 -3 -109 c-3 -107 24 -707 34 -734 4 -11 7 -11 22 0 15 13 16 12 3 -4
-12 -16 -12 -20 2 -34 17 -17 54 -15 417 23 172 18 208 28 220 59 25 66 20
444 -7 553 l-5 23 -27 -23 c-25 -22 -25 -21 2 8 l28 31 -15 64 c-24 105 -53
189 -72 210 -11 13 -30 19 -57 19 -36 0 -38 -2 -26 -17 13 -15 12 -15 -11 -2
-14 9 -34 14 -45 12z m57 -208 c31 -121 48 -269 48 -423 0 -123 -3 -151 -15
-156 -8 -3 -95 -12 -192 -21 -98 -8 -186 -17 -196 -19 -13 -3 -15 -1 -9 7 5 7
3 139 -6 330 -8 175 -12 320 -9 324 6 5 333 32 352 28 5 -1 17 -32 27 -70z"/>
<path d="M2985 5679 c-22 -4 -85 -8 -141 -8 -56 -1 -159 -6 -230 -11 -121 -10
-130 -12 -153 -37 -20 -23 -22 -33 -17 -72 21 -149 38 -340 45 -511 6 -132 13
-206 23 -230 19 -45 77 -96 125 -109 54 -15 200 -13 338 4 154 20 157 23 173
164 22 193 11 481 -28 726 -14 89 -39 104 -135 84z m14 -226 c16 -117 24 -430
14 -523 l-8 -75 -50 -6 c-27 -4 -100 -10 -161 -14 -155 -10 -146 -22 -162 228
-7 108 -20 254 -28 323 -9 69 -13 128 -11 131 3 3 83 8 179 12 95 5 183 9 194
9 19 2 22 -6 33 -85z"/>
<path d="M1745 5626 c-5 -3 -36 -10 -67 -16 -49 -10 -64 -19 -108 -63 l-50
-52 0 -105 0 -104 38 -41 37 -40 -38 35 -39 35 6 -70 c4 -38 11 -134 16 -212
22 -312 86 -357 459 -322 127 12 166 22 177 47 18 43 16 321 -5 526 -12 115
-21 235 -21 267 0 46 -5 63 -23 85 l-24 27 -174 3 c-96 2 -178 2 -184 0z m282
-336 c12 -107 22 -257 22 -333 1 -121 -1 -138 -16 -144 -9 -4 -71 -7 -138 -7
-129 -1 -172 11 -195 55 -6 11 -16 75 -22 142 -11 120 -12 123 -47 162 l-36
40 35 -32 35 -32 0 162 0 162 65 12 c36 6 112 10 170 10 l105 -2 22 -195z"/>
<path d="M4160 4493 c-36 -2 -71 -6 -78 -8 -8 -3 -65 -7 -127 -9 -86 -3 -121
-8 -147 -22 -70 -39 -68 -35 -68 -173 0 -69 5 -193 10 -276 5 -82 13 -214 16
-293 6 -122 10 -147 27 -169 19 -24 24 -25 81 -19 34 3 140 12 236 20 96 8
206 20 243 26 59 11 70 16 82 41 22 42 30 275 16 429 -19 197 -67 395 -104
438 -22 23 -22 23 -187 15z m109 -230 c31 -137 41 -232 41 -399 0 -151 0 -154
-22 -158 -30 -7 -181 -23 -289 -31 l-86 -7 -6 83 c-13 164 -29 570 -23 576 6
6 181 19 298 21 l66 2 21 -87z"/>
<path d="M4932 4484 c-151 -11 -200 -18 -230 -33 -67 -34 -66 -28 -59 -269 11
-390 27 -604 47 -632 21 -30 33 -30 260 -12 308 25 370 38 388 77 18 40 26
277 13 414 -18 196 -67 407 -104 449 -24 26 -27 26 -315 6z m223 -161 c34
-135 47 -234 52 -415 l6 -197 -24 -5 c-30 -7 -312 -36 -349 -36 -26 0 -27 2
-33 68 -12 128 -30 582 -24 589 7 6 178 19 293 21 70 2 72 1 79 -25z"/>
<path d="M3310 4460 c-25 -5 -90 -9 -146 -9 -56 -1 -159 -6 -230 -11 -121 -10
-130 -12 -153 -37 -19 -22 -22 -33 -16 -67 15 -95 35 -325 45 -515 9 -167 15
-211 30 -242 22 -43 68 -81 119 -98 49 -16 206 -13 350 8 136 19 140 22 153
96 16 87 21 411 8 550 -15 171 -36 295 -52 311 -19 18 -57 23 -108 14z m10
-227 c15 -112 25 -428 16 -526 l-7 -75 -128 -12 c-139 -14 -209 -10 -226 13
-6 8 -16 103 -23 211 -7 108 -20 253 -28 322 -9 69 -13 128 -11 131 3 2 81 8
174 12 92 4 180 9 194 9 26 2 27 0 39 -85z"/>
<path d="M2031 4400 c-57 -12 -162 -49 -178 -62 -28 -23 -2 -628 32 -745 41
-139 162 -175 468 -139 152 17 151 16 155 200 3 94 -3 223 -17 377 -12 129
-23 256 -25 282 -2 33 -10 56 -24 70 -20 19 -34 21 -194 23 -95 2 -193 -1
-217 -6z m304 -207 c4 -43 13 -134 21 -203 7 -69 14 -185 14 -257 l0 -133 -27
-7 c-16 -4 -77 -7 -138 -7 -117 -1 -163 12 -185 53 -14 28 -28 176 -36 403
l-7 197 24 6 c72 17 124 23 221 24 l106 1 7 -77z"/>
<path d="M5171 1267 c-51 -16 -108 -79 -116 -127 -25 -147 92 -279 212 -239
58 19 104 59 129 114 46 97 20 209 -56 247 -39 20 -116 22 -169 5z"/>
<path d="M2745 1070 c-41 -13 -91 -63 -106 -107 -17 -53 -6 -126 27 -180 38
-62 82 -85 152 -80 157 11 242 241 128 347 -23 21 -38 25 -99 27 -40 1 -86 -2
-102 -7z"/>
</g>
</svg>
