<?xml version="1.0" standalone="no"?>
<!DOCTYPE svg PUBLIC "-//W3C//DTD SVG 20010904//EN"
 "http://www.w3.org/TR/2001/REC-SVG-20010904/DTD/svg10.dtd">
<svg version="1.0" xmlns="http://www.w3.org/2000/svg"
 width="1080.000000pt" height="783.000000pt" viewBox="0 0 1080.000000 783.000000"
 preserveAspectRatio="xMidYMid meet">
<metadata>
Created by potrace 1.16, written by Peter Selinger 2001-2019
</metadata>
<g transform="translate(0.000000,783.000000) scale(0.100000,-0.100000)"
fill="#000000" stroke="none">
<path d="M442 7537 c-28 -30 -55 -109 -76 -223 -9 -50 -30 -129 -46 -175 -40
-113 -40 -166 1 -181 35 -13 76 37 104 126 12 37 13 24 14 -136 1 -144 -2
-178 -13 -178 -16 0 -66 -38 -66 -50 0 -4 18 -11 40 -15 l40 -7 0 -418 0 -417
-49 -7 c-56 -7 -81 -28 -64 -54 8 -13 23 -16 62 -14 l51 3 0 -424 0 -424 -40
-12 c-32 -9 -40 -16 -40 -36 0 -26 28 -40 60 -30 20 6 20 2 19 -247 -1 -139
-4 -338 -8 -443 l-6 -189 -25 -6 c-34 -8 -33 -41 3 -58 l27 -13 0 -372 0 -372
-32 -15 c-41 -20 -57 -44 -42 -67 8 -12 21 -17 43 -15 l31 3 1 -183 c3 -260
-1 -620 -7 -638 -2 -9 -17 -21 -34 -27 -16 -6 -33 -18 -36 -27 -9 -23 14 -46
44 -46 l25 0 -6 -107 c-4 -60 -12 -244 -18 -409 l-13 -302 -37 -11 c-38 -12
-53 -30 -43 -56 6 -14 21 -19 55 -16 14 2 17 -33 22 -306 7 -325 18 -472 41
-526 28 -67 144 -77 616 -51 477 26 993 25 1395 -4 375 -27 718 -41 1000 -43
260 -1 1252 -17 1795 -29 302 -6 409 -5 419 3 12 9 13 9 7 0 -6 -10 121 -13
621 -13 639 1 886 10 1763 65 770 48 797 49 1370 50 316 1 603 5 636 9 38 5
100 3 160 -5 55 -7 109 -12 122 -12 28 1 30 3 -37 -40 -29 -20 -82 -61 -117
-92 -68 -60 -82 -96 -48 -129 27 -27 57 -19 104 30 25 25 123 98 218 161 96
64 176 122 179 129 11 29 -8 65 -49 90 -53 34 -247 117 -323 139 -61 18 -125
13 -125 -9 0 -33 45 -65 172 -121 181 -79 177 -76 130 -108 l-38 -25 -10 31
c-7 23 -22 38 -59 57 -49 24 -54 25 -242 23 l-193 -3 0 23 c0 53 -31 490 -40
572 -17 151 -41 264 -60 288 -18 21 -24 22 -177 20 -87 -1 -241 -9 -343 -17
-101 -9 -255 -16 -340 -16 l-156 0 -17 267 c-10 148 -22 383 -27 523 -10 272
-30 1342 -30 1576 0 92 -5 157 -14 187 l-14 47 29 0 c56 0 77 80 26 99 -36 14
-181 30 -363 41 -176 11 -735 7 -766 -5 -29 -12 -32 -43 -5 -74 18 -22 28 -53
40 -132 46 -284 57 -518 56 -1125 0 -264 4 -569 10 -679 6 -110 11 -330 11
-490 0 -322 16 -1016 25 -1111 l6 -61 -98 -7 c-54 -4 -174 -16 -268 -27 -198
-24 -955 -40 -955 -21 0 5 -9 61 -19 124 -11 62 -25 169 -31 238 -13 156 -13
691 1 950 5 109 12 866 14 1718 l5 1522 -21 21 c-18 18 -27 20 -87 12 -99 -11
-307 -7 -476 11 -82 9 -198 16 -257 16 -91 0 -112 -3 -127 -18 -16 -16 -21
-65 -41 -392 -12 -206 -27 -454 -32 -550 -4 -96 -11 -210 -14 -254 -5 -63 -4
-77 7 -70 11 6 11 5 0 -9 -27 -32 -32 -877 -7 -1239 l8 -118 -254 6 c-356 9
-475 -9 -557 -84 -57 -53 -72 -112 -73 -283 0 -88 9 -206 26 -335 37 -296 45
-439 45 -865 l0 -385 -252 3 c-139 2 -349 6 -465 9 l-213 6 0 562 c0 308 -5
890 -10 1291 -6 402 -13 1324 -16 2050 -3 914 -8 1323 -16 1332 -14 17 -197
17 -693 2 -349 -11 -371 -12 -387 -31 -17 -19 -18 -57 -18 -502 0 -266 -3
-659 -7 -873 l-6 -391 -41 15 c-71 25 -180 26 -425 3 -273 -25 -452 -53 -483
-74 -20 -14 -21 -25 -23 -128 -1 -62 -7 -273 -14 -468 -13 -359 -6 -940 20
-1530 7 -181 28 -889 33 -1140 1 -51 0 -55 -24 -56 -14 -1 -101 -5 -195 -8
-93 -4 -264 -14 -380 -22 -122 -9 -245 -13 -293 -9 -73 6 -84 10 -92 28 -17
45 -43 350 -47 558 l-5 216 38 8 c48 9 64 21 64 50 0 31 -24 48 -60 43 l-30
-5 0 131 c0 72 4 192 9 266 5 74 13 197 16 273 l7 137 27 6 c38 10 51 23 51
54 0 28 -15 40 -51 40 -18 0 -19 12 -19 405 0 325 3 406 13 412 24 14 26 41 6
66 -18 24 -19 44 -19 390 0 351 1 366 19 372 37 11 37 59 0 70 -18 6 -19 19
-19 233 0 125 3 325 7 445 l6 217 24 0 c35 0 63 18 63 40 0 23 -28 40 -66 40
l-27 0 6 242 c4 133 7 323 7 424 l0 183 31 3 c63 6 61 68 -2 68 l-29 0 0 420
0 420 54 0 c46 0 56 3 61 20 11 33 -12 50 -66 50 l-49 0 0 83 c0 46 -2 140 -5
208 l-5 124 40 -80 c22 -44 45 -99 51 -123 13 -48 39 -68 68 -53 44 24 35 74
-44 231 -29 59 -72 162 -95 231 -24 68 -47 132 -52 142 -12 24 -40 21 -66 -6z
m3023 -3159 c0 -656 4 -1813 9 -2570 l9 -1378 -189 0 c-104 0 -310 7 -459 15
-148 8 -273 15 -276 15 -4 0 1 27 12 60 64 206 72 483 26 960 -14 151 -32 358
-39 460 -15 226 -15 867 0 1570 6 283 15 860 18 1282 l7 768 271 3 c149 1 348
3 441 5 l170 2 0 -1192z m2305 506 c96 -9 248 -17 336 -18 l161 -1 6 -75 c13
-165 -3 -2678 -20 -3100 -23 -601 -11 -995 38 -1239 6 -29 7 -56 2 -60 -4 -3
-184 -5 -400 -3 l-392 2 5 28 c3 16 -4 122 -15 238 -40 406 -43 473 -39 1067
2 419 0 588 -8 602 -9 15 -9 129 -3 425 17 799 62 2100 74 2138 6 16 43 15
255 -4z m2555 -869 c105 -3 211 -8 236 -11 l46 -6 -13 -45 c-11 -37 -12 -171
-4 -776 11 -837 21 -1125 55 -1672 27 -433 31 -711 13 -887 -10 -96 -15 -118
-28 -118 -37 0 -612 -30 -687 -36 l-83 -6 -1 63 c0 35 -5 89 -10 119 -5 30
-13 339 -18 685 -6 347 -16 722 -22 835 -7 117 -13 474 -13 830 -1 449 -5 649
-14 710 -13 87 -55 281 -67 312 -7 18 35 18 610 3z m-5879 -237 c1 -2 -2 -192
-7 -423 -21 -916 -14 -1317 32 -1790 35 -361 36 -842 2 -1059 l-6 -38 -151 7
c-83 4 -164 9 -181 11 -16 2 -142 7 -280 10 l-250 7 3 181 c2 100 -6 485 -19
856 -26 786 -31 1647 -10 1970 7 113 16 208 19 212 4 4 48 10 97 14 60 4 96
12 109 23 11 9 16 10 12 4 -9 -15 25 -18 40 -4 18 19 190 30 388 26 109 -2
200 -6 202 -7z m2752 -1525 l143 -6 -2 -591 c-1 -366 3 -641 10 -722 17 -199
49 -486 57 -513 l7 -24 -399 7 c-219 4 -400 9 -402 11 -2 1 1 54 7 116 14 145
14 561 1 744 -6 77 -22 277 -36 445 -34 403 -28 467 46 505 62 32 265 42 568
28z m4511 -1015 c25 -145 46 -389 53 -633 l3 -100 -55 1 c-30 0 -131 6 -225
13 -160 12 -331 10 -600 -5 l-100 -6 0 384 0 384 145 -3 c80 -2 224 3 320 10
96 8 236 15 311 16 l137 1 11 -62z"/>
</g>
</svg>
