<?xml version="1.0" standalone="no"?>
<!DOCTYPE svg PUBLIC "-//W3C//DTD SVG 20010904//EN"
 "http://www.w3.org/TR/2001/REC-SVG-20010904/DTD/svg10.dtd">
<svg version="1.0" xmlns="http://www.w3.org/2000/svg"
 width="280.000000pt" height="459.000000pt" viewBox="0 0 280.000000 459.000000"
 preserveAspectRatio="xMidYMid meet">
<metadata>
Created by potrace 1.16, written by Peter Selinger 2001-2019
</metadata>
<g transform="translate(0.000000,459.000000) scale(0.100000,-0.100000)"
fill="#000000" stroke="none">
<path d="M2072 4493 c-7 -3 -25 -16 -39 -29 -25 -23 -24 -44 2 -44 13 0 35
-29 35 -44 0 -3 -15 -6 -34 -6 -34 0 -61 -20 -38 -28 7 -2 19 -10 26 -18 18
-17 46 -18 46 -1 0 7 4 6 10 -4 5 -9 5 -31 -2 -57 -6 -23 -7 -50 -3 -59 5 -15
9 -12 21 16 8 18 14 43 14 55 1 11 7 38 14 58 10 27 10 38 2 42 -7 3 -7 5 2 5
6 1 12 10 12 22 0 11 -4 18 -9 15 -5 -3 -14 1 -21 10 -11 12 -15 12 -22 2 -5
-8 -6 5 -2 30 4 23 5 42 3 41 -2 0 -10 -3 -17 -6z"/>
<path d="M1600 3719 c0 -4 -21 -10 -47 -13 -95 -12 -109 -14 -140 -24 -23 -7
-33 -7 -33 0 0 6 -13 8 -30 6 -19 -3 -31 0 -35 9 -2 8 -9 12 -15 8 -5 -3 -19
-1 -29 5 -17 9 -23 6 -36 -20 -8 -16 -13 -30 -11 -30 3 0 1 -12 -4 -26 -7 -17
-6 -32 1 -46 11 -20 9 -21 -26 -15 -32 5 -36 4 -30 -11 18 -44 18 -53 -4 -59
-21 -5 -21 -7 16 -45 37 -38 37 -39 9 -28 -21 8 -32 7 -42 -1 -10 -8 -14 -8
-14 0 0 6 -7 11 -15 11 -12 0 -14 -7 -10 -27 6 -26 5 -26 -8 -10 -12 15 -16
15 -26 3 -8 -10 -9 -21 -3 -33 5 -10 7 -24 5 -31 -3 -7 3 -22 13 -34 19 -20
19 -21 -3 -14 -16 5 -23 2 -28 -12 -7 -23 14 -74 26 -66 5 3 9 0 9 -6 0 -6 5
-8 10 -5 6 4 7 11 4 17 -4 7 -2 8 4 4 7 -4 20 -2 29 4 14 9 9 10 -24 6 -36 -5
-43 -3 -48 14 -9 29 0 37 37 32 l33 -5 -30 27 c-19 18 -26 29 -18 32 9 4 8 12
-4 30 -8 14 -13 28 -9 32 4 4 12 -1 17 -11 12 -21 29 -13 29 13 0 15 7 18 50
15 28 -2 50 1 50 6 0 5 -14 21 -31 36 -27 25 -29 29 -13 40 11 8 15 20 10 37
-6 25 -4 26 33 26 22 0 43 5 46 10 3 6 -3 10 -13 10 -21 0 -40 32 -23 38 6 2
9 8 5 13 -3 5 0 9 7 9 8 0 8 4 1 13 -7 8 -7 19 2 36 l13 24 22 -22 c11 -11 21
-16 21 -10 0 5 5 7 10 4 6 -4 8 -16 5 -28 -5 -21 -5 -21 6 1 13 24 52 32 43 8
-5 -12 2 -12 38 1 24 9 57 17 73 19 83 9 178 24 196 29 18 6 19 4 10 -12 -5
-11 -9 -34 -9 -52 1 -37 -20 -59 -149 -153 -60 -43 -70 -54 -60 -67 10 -12 6
-13 -31 -9 -24 4 -40 2 -36 -3 3 -5 13 -9 23 -9 10 0 32 -5 50 -11 25 -9 29
-14 20 -25 -6 -8 -14 -12 -18 -10 -10 7 -84 -37 -89 -52 -3 -10 3 -10 27 3 17
8 37 14 44 13 7 -2 14 2 15 7 2 6 17 25 35 43 l32 33 -30 -3 c-18 -2 -30 2
-30 9 0 6 -3 14 -7 18 -4 4 28 33 70 65 134 100 144 111 147 155 1 22 5 47 9
56 6 13 -1 15 -44 15 -27 -1 -50 -4 -50 -7z"/>
<path d="M914 3636 c-57 -39 -78 -61 -70 -75 9 -14 -16 -20 -37 -9 -25 13 -50
-18 -35 -45 5 -10 7 -25 4 -33 -3 -7 3 -18 14 -24 27 -15 25 -28 -6 -36 l-25
-6 22 -24 22 -23 27 22 c15 12 25 25 23 30 -2 4 2 7 10 7 7 0 28 13 45 28 23
21 32 37 32 60 0 21 5 32 14 32 7 0 19 7 26 15 10 12 10 15 0 15 -8 0 -9 4 -3
13 11 14 9 47 -3 70 -9 15 -15 13 -60 -17z m57 7 c0 -5 2 -18 3 -30 2 -13 -7
-32 -21 -45 -13 -12 -23 -26 -23 -31 0 -5 -8 -16 -17 -23 -17 -13 -17 -13 0
-14 21 0 23 -18 2 -26 -8 -4 -12 -10 -9 -15 3 -5 -6 -8 -20 -7 -24 2 -25 4
-11 25 13 19 13 23 1 23 -17 0 -28 -27 -21 -51 8 -23 0 -23 -44 0 -27 14 -30
19 -17 24 15 6 14 9 -4 27 -17 17 -18 23 -8 35 11 12 15 11 31 -7 14 -16 17
-17 17 -4 0 9 7 16 16 16 11 0 13 6 9 20 -5 15 5 27 42 54 46 34 72 44 74 29z"/>
<path d="M1569 3344 c-9 -11 -69 -27 -105 -29 -18 -1 -44 -26 -44 -42 0 -11 8
-8 30 10 16 14 47 28 69 32 22 4 45 12 50 19 14 17 335 12 368 -5 32 -17 37
-54 14 -93 -12 -18 -33 -68 -47 -112 -15 -43 -39 -97 -54 -119 -15 -22 -39
-59 -54 -81 -22 -34 -34 -43 -69 -48 -39 -6 -113 -43 -104 -52 2 -2 20 3 40
11 50 21 62 19 92 -11 30 -29 24 -39 -28 -51 -16 -3 -35 -16 -44 -29 -22 -34
-84 -49 -122 -29 -40 20 -48 19 -27 -4 10 -11 35 -22 57 -25 21 -3 57 -9 78
-12 31 -4 43 -1 59 16 l20 22 76 -36 c42 -19 76 -38 76 -43 0 -4 25 -35 55
-68 38 -42 56 -70 60 -95 14 -96 63 -262 85 -284 4 -4 7 -14 5 -20 -2 -6 31
-28 74 -48 67 -33 80 -43 96 -78 10 -23 31 -52 47 -65 16 -13 24 -27 18 -30
-20 -12 -9 -62 25 -119 19 -32 35 -60 35 -63 0 -8 -45 10 -72 29 -29 20 -98
22 -105 3 -2 -7 13 -9 38 -7 39 4 45 1 100 -54 41 -41 64 -73 75 -107 16 -48
16 -48 -13 -90 -15 -23 -32 -47 -36 -54 -5 -8 6 -19 33 -33 47 -24 53 -22 70
21 l13 31 71 -7 c166 -17 223 -98 176 -254 -20 -70 -64 -136 -81 -125 -5 3
-17 0 -26 -5 -10 -6 -12 -11 -5 -11 16 0 15 -37 -2 -43 -7 -3 -18 -1 -24 5 -6
6 -21 -1 -43 -22 -30 -27 -31 -30 -11 -25 21 6 23 4 20 -21 -2 -24 -10 -30
-47 -41 -52 -15 -76 -33 -44 -33 13 0 20 -6 19 -17 -2 -23 48 -35 122 -27 l62
6 0 -39 c0 -36 -3 -41 -44 -60 -24 -12 -47 -30 -51 -40 -3 -10 -41 -35 -83
-56 -76 -37 -78 -37 -140 -27 -47 8 -80 8 -124 -1 -40 -8 -62 -9 -66 -2 -4 6
-17 15 -30 22 -18 10 -23 9 -28 -3 -5 -14 -9 -14 -36 0 -27 14 -30 14 -25 1 7
-18 -31 -37 -76 -38 -48 -1 -84 -13 -69 -23 30 -18 10 -29 -43 -22 -48 5 -55
4 -56 -11 0 -11 -3 -13 -6 -5 -3 7 -27 24 -54 37 l-49 25 -41 -21 c-23 -11
-49 -19 -59 -16 -13 3 -19 -7 -29 -55 -13 -64 -30 -108 -41 -108 -4 0 -28 12
-54 26 -31 17 -46 32 -46 46 0 17 -2 18 -15 8 -11 -9 -12 -16 -5 -25 9 -11 -1
-12 -48 -8 -53 5 -61 3 -66 -14 -6 -20 -59 -56 -69 -47 -3 3 -8 -4 -12 -16 -4
-12 -4 -24 -1 -27 3 -4 1 -12 -4 -18 -8 -10 -18 -6 -42 17 -28 26 -32 27 -48
13 -18 -16 -40 -20 -40 -7 0 13 34 42 49 42 19 0 99 79 105 105 5 18 11 23 24
18 9 -3 14 -3 11 1 -3 3 9 22 27 42 19 19 36 47 39 62 13 61 21 76 45 82 17 4
28 16 34 37 9 29 14 33 63 39 29 3 78 3 108 -1 31 -3 69 -4 85 0 25 5 30 12
30 35 0 22 17 48 65 102 76 84 89 126 17 55 -27 -27 -57 -47 -69 -47 -13 0
-31 -12 -43 -29 -11 -17 -29 -33 -40 -36 -26 -8 -74 18 -107 59 -19 25 -31 32
-42 27 -9 -5 -29 -11 -45 -15 -23 -6 -27 -4 -23 8 4 9 2 16 -3 16 -6 0 -10 -9
-10 -21 0 -18 4 -20 33 -14 17 4 38 11 46 15 9 5 25 -5 47 -30 62 -68 112 -73
150 -15 9 14 26 25 38 25 13 0 33 11 46 25 13 14 26 23 28 20 3 -3 -18 -29
-46 -59 -34 -36 -52 -63 -52 -80 0 -32 -25 -40 -101 -31 -32 4 -86 4 -119 0
-49 -6 -60 -10 -60 -25 0 -33 -12 -50 -34 -50 -25 0 -46 -34 -46 -73 0 -32
-45 -94 -74 -101 -17 -4 -26 -15 -31 -35 -7 -31 -75 -101 -98 -101 -24 0 -60
-47 -50 -65 8 -14 12 -14 35 4 l26 21 26 -25 c14 -13 26 -30 26 -37 0 -7 9 -2
19 11 10 13 16 31 14 40 -3 10 9 23 32 35 20 11 41 28 46 39 9 16 20 18 79 14
46 -3 80 -11 105 -26 20 -11 42 -21 49 -21 9 0 36 51 41 80 11 62 18 80 31 80
8 0 33 9 54 20 l40 20 42 -21 c23 -12 50 -31 59 -43 l18 -21 1 23 c0 21 3 22
35 16 19 -3 47 -3 61 0 21 6 24 10 14 21 -13 15 -5 18 74 29 36 5 37 4 22 -13
-15 -17 -14 -19 9 -29 38 -18 73 -15 84 7 12 21 1 34 -37 45 -12 4 -20 11 -17
16 3 5 17 4 31 -2 20 -10 27 -9 34 2 7 12 12 11 29 -4 19 -17 26 -18 80 -7 43
9 77 9 126 1 65 -10 66 -10 129 25 35 19 70 35 78 35 9 0 18 10 22 23 3 14 22
31 50 44 41 21 44 24 48 69 l3 46 -65 -6 c-38 -3 -71 -1 -80 5 -11 7 -7 8 15
4 29 -5 29 -5 7 7 -19 9 -28 9 -44 -1 -26 -16 -37 -5 -12 14 18 14 18 14 -6
16 -19 1 -16 4 15 11 22 6 43 16 47 22 12 18 9 66 -4 66 -8 0 -4 7 6 15 13 10
23 12 29 6 6 -6 21 -4 41 6 18 9 26 18 18 21 -8 2 1 19 27 47 51 55 85 162 75
233 -12 85 -80 135 -201 147 l-72 7 -18 -36 c-19 -41 -18 -41 -60 -18 l-32 17
36 52 35 51 -16 48 c-9 28 -34 67 -58 91 -40 41 -39 55 2 33 32 -17 29 3 -11
69 -39 64 -48 108 -28 128 7 7 2 15 -15 27 -14 9 -37 38 -50 65 -22 42 -35 54
-100 87 -41 21 -73 41 -70 43 2 2 -1 9 -6 16 -23 28 -71 188 -85 287 -4 25
-20 51 -51 85 -26 26 -54 59 -62 72 -9 14 -50 40 -90 58 l-74 35 -22 -21 c-19
-18 -30 -20 -72 -14 -49 7 -49 7 -17 15 18 5 40 20 49 33 9 14 24 25 33 25 9
1 31 9 50 19 l34 18 -26 18 c-15 9 -27 23 -27 30 0 8 -8 16 -17 18 -12 3 -8 5
9 6 27 1 32 6 112 126 18 28 45 86 60 129 14 44 35 94 47 112 24 39 18 76 -17
99 -33 21 -358 29 -375 9z"/>
<path d="M941 3336 c-7 -9 -11 -25 -8 -36 6 -24 -1 -25 -31 -4 -21 14 -22 14
-22 -7 0 -14 -5 -19 -14 -16 -21 8 -27 -17 -10 -42 16 -22 44 -29 44 -10 0 17
20 -1 20 -19 1 -24 37 -65 50 -57 6 4 18 -1 25 -11 9 -11 14 -14 15 -6 0 6 5
12 10 12 7 0 7 -6 0 -19 -13 -26 -13 -31 5 -31 8 0 22 11 31 25 9 14 24 25 33
25 14 -1 14 -2 -1 -14 -10 -7 -18 -19 -18 -25 0 -7 -7 -25 -15 -41 -9 -17 -11
-30 -6 -30 5 0 7 -9 4 -19 -3 -14 -17 -22 -45 -26 -32 -6 -39 -11 -35 -26 3
-10 -1 -23 -9 -30 -22 -18 -16 -36 17 -49 l31 -13 -22 -17 -23 -17 29 -11 c26
-10 25 -10 -13 -5 -28 3 -43 2 -43 -5 0 -19 18 -23 57 -13 21 5 50 12 65 15
15 3 32 15 38 25 8 16 4 23 -23 40 -21 13 -26 21 -15 21 9 0 20 -5 23 -10 4
-6 26 6 53 27 28 23 43 31 39 21 -4 -10 -10 -25 -13 -33 -4 -9 -1 -15 7 -15 7
0 9 3 6 7 -4 3 0 17 8 29 11 17 12 24 2 28 -6 3 -3 4 8 1 11 -2 27 0 35 5 13
8 12 10 -2 10 -21 0 -23 11 -5 30 6 7 -19 -14 -56 -47 -68 -60 -69 -60 -98
-46 -16 8 -29 19 -29 24 0 5 -5 9 -12 9 -6 0 -3 -10 8 -21 13 -15 14 -20 5
-17 -8 2 -21 15 -30 28 -16 23 -15 23 15 17 17 -3 42 -3 55 1 17 5 6 8 -41 12
l-65 5 45 11 c32 7 44 15 42 25 -1 9 8 21 20 27 l23 11 -22 0 c-24 1 -28 8
-14 29 5 9 18 11 37 7 29 -6 29 -6 5 7 -34 18 -28 32 16 38 l38 5 -33 8 c-41
8 -38 33 2 29 18 -2 25 1 21 8 -3 6 -10 8 -14 6 -4 -3 -13 0 -21 6 -12 8 -12
9 2 4 10 -3 20 -1 23 4 4 6 -18 8 -57 5 -79 -7 -92 1 -93 59 0 29 -7 54 -20
72 -18 24 -22 25 -34 10z m45 -89 c1 -55 12 -67 61 -67 44 0 48 -13 14 -49
-34 -37 -50 -41 -28 -7 15 22 15 24 -3 29 -11 3 -20 0 -20 -5 0 -6 -6 -6 -15
2 -8 6 -18 9 -23 6 -5 -3 -18 4 -28 16 -13 14 -15 22 -7 25 8 3 5 11 -8 24
-16 16 -23 18 -34 9 -17 -14 -35 -5 -35 17 0 9 6 13 15 9 10 -4 15 1 15 15 0
16 3 18 19 9 32 -16 42 -12 35 14 -3 14 -2 30 2 37 13 22 39 -31 40 -84z"/>
<path d="M1214 2889 c-4 -7 -21 -9 -40 -6 -25 4 -34 2 -34 -8 0 -8 -5 -26 -12
-42 -14 -33 -17 -83 -5 -83 5 0 -2 -19 -16 -43 -16 -27 -23 -48 -17 -57 4 -7
6 -19 4 -25 -3 -7 2 -15 10 -18 14 -6 14 -11 -3 -44 -24 -45 -38 -138 -23
-147 6 -3 22 -1 36 5 19 9 23 16 16 28 -8 16 21 123 41 147 4 5 6 21 2 35 -5
23 -5 24 10 4 15 -18 16 -18 17 -2 0 19 25 23 36 5 5 -7 11 -5 21 7 12 17 13
14 13 -27 0 -29 6 -50 16 -59 8 -7 21 -24 29 -39 12 -24 10 -31 -36 -105 -26
-44 -49 -88 -49 -98 0 -10 -4 -16 -9 -12 -5 3 -12 -3 -16 -14 -7 -22 33 -109
61 -132 16 -13 17 -11 10 24 -4 20 -4 42 -1 47 7 11 75 -20 94 -44 22 -27 34
-19 28 18 -5 34 -5 35 21 25 14 -6 31 -14 38 -20 7 -6 23 -1 47 15 19 13 44
27 56 31 12 3 21 13 21 21 0 8 10 14 24 14 30 0 44 -18 21 -26 -35 -14 -74
-147 -54 -187 23 -44 84 -136 92 -137 4 0 13 11 19 25 10 22 13 23 20 10 5 -8
13 -13 18 -10 5 3 11 1 14 -4 8 -12 -14 -61 -26 -61 -18 0 -29 -53 -18 -81 10
-22 8 -32 -6 -53 -14 -22 -15 -32 -5 -52 14 -32 14 -34 -4 -34 -9 0 -15 -9
-15 -21 0 -17 -3 -19 -14 -10 -10 8 -21 9 -42 1 -15 -6 -45 -8 -66 -5 -21 4
-38 3 -38 -3 0 -5 -11 -14 -25 -20 -34 -16 -40 -15 -25 3 8 10 9 15 2 15 -6 0
-22 11 -36 25 -29 29 -35 30 -61 11 -17 -12 -18 -16 -4 -52 8 -21 25 -44 37
-50 21 -10 21 -11 -16 -47 -21 -20 -46 -51 -56 -68 l-18 -31 33 7 c19 4 41 13
49 20 8 7 25 16 38 19 19 6 22 4 22 -18 0 -14 7 -29 16 -34 15 -8 15 -11 0
-35 -16 -23 -16 -26 -2 -34 14 -8 14 -14 -5 -59 -16 -37 -33 -58 -72 -84 -29
-19 -58 -35 -65 -35 -8 0 -19 -8 -26 -18 -7 -9 -22 -17 -33 -17 -22 0 -84 -60
-68 -66 32 -13 39 -22 26 -38 -11 -13 -11 -17 3 -22 9 -3 13 -10 10 -15 -3 -5
6 -14 20 -20 22 -10 30 -8 67 20 51 37 61 38 98 10 23 -17 33 -19 47 -10 17 9
15 10 -13 11 -21 0 -37 7 -45 19 -14 23 -40 16 -93 -25 -25 -18 -40 -24 -56
-19 -22 7 -22 8 9 24 23 12 29 20 23 30 -8 12 -12 12 -26 -2 -9 -10 -24 -17
-33 -16 -11 0 -12 2 -4 6 20 8 14 40 -10 46 l-22 6 24 26 c13 14 34 25 46 25
13 0 28 9 34 20 6 11 15 18 20 15 4 -3 35 13 68 36 47 32 64 51 77 85 9 24 22
44 28 44 7 1 2 9 -10 19 -20 17 -21 20 -6 41 15 21 15 24 -2 36 -12 9 -16 21
-12 40 4 24 3 26 -26 20 -17 -3 -38 -12 -46 -20 -19 -16 -61 -27 -61 -16 0 4
28 39 62 76 67 75 130 116 165 107 13 -3 37 0 55 6 28 10 34 8 56 -11 l24 -23
-7 33 c-8 37 12 45 33 12 15 -24 22 -25 48 -4 18 15 18 15 -7 10 -23 -5 -29 0
-49 38 l-23 43 20 34 c19 30 19 36 6 48 -23 21 -6 71 30 83 4 2 9 25 11 51 2
42 1 46 -12 33 -14 -13 -17 -13 -28 2 -11 15 -13 14 -25 -10 -15 -33 -33 -26
-24 10 5 21 4 24 -8 14 -12 -10 -17 -8 -29 10 -43 66 -49 86 -38 135 15 69 30
103 46 103 8 0 14 5 14 10 0 6 11 10 25 10 43 0 27 17 -21 24 -67 9 -74 8 -74
-9 0 -9 -12 -20 -26 -25 -14 -6 -32 -17 -40 -25 -18 -17 -44 -20 -44 -4 0 5
-5 7 -10 4 -6 -4 -24 1 -41 9 l-31 15 7 -42 7 -42 -23 21 c-13 12 -39 29 -58
39 -40 20 -55 8 -46 -38 7 -40 -7 -27 -35 32 -24 52 -20 81 7 46 14 -19 15
-17 9 20 -5 36 0 49 43 120 46 74 48 81 36 105 -8 15 -21 32 -29 39 -10 9 -16
30 -16 58 l0 44 34 -6 c48 -9 53 9 10 36 -32 19 -35 25 -30 53 5 28 4 29 -8
13 -11 -14 -15 -15 -20 -5 -3 7 -4 1 -1 -13 2 -14 0 -43 -6 -64 l-11 -39 -14
24 c-7 14 -13 19 -14 12 0 -7 -4 -10 -10 -7 -5 3 -10 1 -10 -4 0 -6 -5 -11
-11 -11 -20 0 0 51 38 97 19 23 31 43 25 43 -5 0 -25 -20 -43 -45 -19 -24 -42
-45 -51 -45 -22 0 -21 2 -3 -50 9 -27 12 -47 6 -54 -16 -20 -49 -127 -44 -146
4 -17 -24 -37 -35 -25 -13 12 19 129 43 161 l26 34 -23 -3 c-16 -1 -22 3 -20
13 2 8 6 30 8 49 3 18 9 41 13 50 11 19 10 53 -2 62 -4 3 0 20 9 37 10 22 23
32 38 32 13 0 31 9 41 20 10 11 15 20 12 20 -3 0 -9 -5 -13 -11z"/>
<path d="M715 2430 c3 -5 -1 -10 -9 -10 -16 0 -37 -32 -42 -65 -2 -11 -6 -31
-10 -44 -6 -22 -5 -22 15 -11 30 16 32 11 18 -38 -15 -50 -26 -62 -61 -66 -37
-4 -42 -13 -21 -36 17 -19 17 -20 -29 -40 l-48 -20 41 -51 c23 -29 41 -55 41
-59 0 -9 44 -26 86 -34 39 -6 76 27 68 61 -9 31 28 49 50 24 9 -10 13 -20 10
-24 -3 -3 6 -13 20 -22 17 -11 26 -26 26 -43 0 -24 2 -25 50 -19 28 3 50 2 50
-2 0 -5 10 -7 23 -6 12 1 27 3 34 4 6 0 17 17 24 36 10 28 18 35 39 35 18 0
28 8 37 28 24 57 25 74 7 114 -16 36 -20 39 -48 34 l-30 -6 22 23 c20 21 20
25 7 43 -8 10 -15 15 -15 9 0 -5 -9 3 -19 19 -11 17 -18 33 -15 37 2 4 0 10
-6 14 -5 3 -10 19 -10 35 0 25 -5 29 -49 40 -36 8 -55 9 -70 1 -33 -18 -68
-13 -119 19 -49 30 -79 39 -67 20z m258 -51 c29 -8 37 -15 37 -33 0 -12 3 -26
7 -30 4 -3 8 -13 9 -21 3 -20 43 -75 56 -75 5 0 -2 -14 -17 -31 -29 -35 -27
-46 3 -30 31 17 40 14 57 -19 17 -33 22 -76 5 -50 -8 12 -10 11 -10 -7 0 -13
-4 -23 -10 -23 -6 0 -6 9 0 26 7 17 7 31 0 42 -11 19 -10 21 -14 -35 -2 -30 2
-43 11 -43 15 0 15 -2 7 -24 -4 -9 -18 -16 -34 -16 -22 0 -29 -5 -33 -29 -7
-36 -39 -56 -65 -42 -10 5 -37 7 -60 4 -40 -5 -42 -4 -42 19 0 17 -8 29 -26
36 -14 7 -23 16 -20 21 3 4 -5 18 -17 29 -21 20 -24 21 -46 6 -16 -12 -21 -23
-17 -39 6 -23 -15 -51 -27 -38 -4 3 -7 2 -7 -4 0 -6 -8 -10 -17 -8 -10 2 -30
6 -44 9 -16 3 -43 28 -72 64 l-46 59 52 21 c51 22 51 22 29 38 -20 14 -33 42
-13 30 5 -3 23 -1 39 5 26 9 34 20 46 64 16 54 29 65 72 65 16 0 28 8 36 25 9
20 19 25 47 25 20 0 43 5 51 10 19 12 27 12 73 -1z"/>
<path d="M124 1955 c-1 -14 2 -23 6 -20 14 9 18 -34 4 -46 -10 -8 -17 -7 -29
5 -14 14 -14 16 -2 16 9 0 18 -6 20 -12 3 -8 6 -6 6 5 1 21 -28 23 -55 2 -19
-14 -19 -14 2 -15 12 0 27 -7 34 -15 7 -9 29 -15 51 -15 47 0 54 -24 10 -33
-32 -7 -47 -33 -30 -53 9 -11 8 -14 -4 -14 -8 0 -27 -6 -41 -14 -23 -12 -24
-15 -11 -26 12 -10 13 -16 3 -27 -16 -19 8 -34 41 -26 15 4 22 2 18 -4 -4 -6
0 -16 7 -22 10 -8 16 -9 21 -1 12 19 37 12 30 -10 -6 -18 -2 -19 60 -15 48 3
71 1 81 -9 15 -16 8 -27 -12 -19 -8 3 -14 0 -14 -6 0 -6 -6 -8 -14 -5 -18 7
-57 -57 -60 -98 -2 -30 -21 -52 -91 -106 l-30 -23 39 6 c33 6 38 4 32 -10 -3
-9 -6 -18 -6 -21 0 -2 -14 -11 -31 -19 -24 -13 -28 -19 -19 -30 6 -8 10 -24 8
-36 -3 -20 -5 -21 -18 -8 -19 19 -61 11 -94 -18 -39 -34 -32 -43 31 -43 l57 0
-31 -22 c-16 -13 -31 -27 -33 -33 -2 -5 -10 -15 -18 -21 -18 -13 -12 -49 8
-50 8 0 23 -4 32 -8 9 -4 25 -3 37 3 32 17 38 12 12 -10 -21 -17 -56 -69 -46
-69 2 0 33 13 70 30 75 34 75 34 75 21 0 -5 -8 -12 -17 -15 -10 -4 -29 -15
-43 -26 l-25 -19 28 3 c24 2 64 26 44 26 -4 0 3 10 14 21 35 35 5 38 -59 8
-56 -28 -86 -23 -44 7 30 21 54 46 49 51 -3 2 -22 -3 -42 -11 -47 -20 -55 -20
-55 -1 0 13 -4 14 -20 5 -17 -9 -20 -8 -20 9 0 10 7 22 16 25 9 4 14 9 11 13
-8 7 27 34 78 61 l40 20 -85 -5 -85 -6 24 26 c22 24 50 29 96 17 32 -8 39 23
13 56 -5 8 2 16 21 24 16 6 31 20 34 31 4 13 14 19 34 20 15 0 59 8 97 18 49
13 62 20 47 24 -14 3 -21 13 -21 28 0 21 -3 20 -35 -15 -23 -25 -40 -36 -51
-32 -38 14 -62 17 -68 7 -4 -6 -15 -11 -24 -11 -11 0 -4 10 21 31 40 33 76 89
57 89 -6 0 -1 18 11 40 17 30 27 39 41 34 10 -3 18 -1 18 5 0 6 6 8 14 5 7 -3
17 3 20 13 4 10 2 19 -3 21 -6 2 -8 8 -5 14 5 8 -15 9 -65 4 -71 -7 -71 -7
-71 18 0 26 -17 29 -42 8 -19 -15 -32 -3 -16 15 16 20 2 28 -28 14 -32 -14
-54 -3 -30 15 16 11 16 13 -1 22 -16 10 -15 12 10 21 16 6 35 11 44 11 14 0
14 3 -2 20 -22 24 -9 45 33 53 20 4 28 12 28 26 0 18 -7 21 -41 22 -22 1 -32
3 -23 6 14 4 16 8 7 24 -5 11 -7 29 -3 41 4 14 2 18 -5 14 -6 -4 -11 0 -11 8
0 26 -15 18 -16 -9z"/>
<path d="M963 1912 c-18 -3 -23 -10 -23 -33 0 -16 5 -29 10 -29 6 0 10 -15 10
-33 0 -21 8 -41 20 -52 22 -20 26 -50 10 -60 -8 -5 -8 -11 0 -20 8 -9 7 -14
-3 -18 -12 -5 -11 -15 4 -61 31 -91 30 -101 -39 -293 -8 -24 -21 -43 -29 -43
-12 0 -12 -4 1 -22 9 -12 16 -26 16 -30 0 -12 -78 -9 -85 3 -5 7 -14 4 -26 -7
-18 -16 -19 -16 -20 7 l-1 24 -7 -24 c-5 -19 -14 -24 -46 -27 -50 -4 -97 -24
-92 -38 5 -15 -40 -49 -54 -41 -6 4 -13 -2 -16 -14 -7 -29 -85 -51 -100 -29
-4 7 2 9 15 6 12 -4 22 -2 22 3 0 5 -14 9 -32 9 -29 0 -30 -1 -15 -18 25 -27
21 -42 -13 -48 -16 -4 -27 -10 -25 -14 14 -22 -157 -75 -187 -59 -12 6 -25 6
-38 -1 -11 -6 -24 -9 -29 -6 -5 3 -14 -1 -21 -9 -17 -20 2 -20 43 1 28 15 32
15 41 2 8 -13 14 -13 45 -2 20 7 53 16 74 19 20 3 37 10 37 15 0 6 7 10 15 10
8 0 24 9 35 20 11 11 27 20 35 20 8 0 15 6 15 13 0 8 19 19 41 26 26 8 43 20
46 32 3 10 9 16 14 13 11 -6 70 37 63 47 -7 12 31 29 73 32 21 1 44 6 51 10 7
5 12 3 12 -5 1 -9 4 -8 13 3 10 13 24 15 63 12 54 -6 72 5 56 33 -6 10 -1 31
14 62 12 26 25 63 29 82 4 19 16 53 26 76 16 39 16 48 3 104 -8 34 -19 70 -24
81 -8 15 -7 19 5 19 18 0 20 11 4 27 -8 8 -8 13 0 17 17 11 13 41 -9 61 -13
12 -20 31 -20 57 0 21 -4 38 -10 38 -5 0 -10 9 -10 19 0 14 8 21 28 23 15 2
23 5 17 9 -5 3 -20 3 -32 1z"/>
</g>
</svg>
